<?xml version="1.0" encoding="UTF-8" standalone="no"?>
<!DOCTYPE svg PUBLIC "-//W3C//DTD SVG 1.1//EN"
 "http://www.w3.org/Graphics/SVG/1.1/DTD/svg11.dtd">
<!-- Generated by graphviz version 2.40.1 (20161225.0304)
 -->
<!-- Title: dependencies Pages: 1 -->
<svg width="504pt" height="284pt"
 viewBox="0.00 0.00 504.00 284.00" xmlns="http://www.w3.org/2000/svg" xmlns:xlink="http://www.w3.org/1999/xlink">
<g id="graph0" class="graph" transform="scale(1 1) rotate(0) translate(4 280)">
<title>dependencies</title>
<polygon fill="#ffffff" stroke="transparent" points="-4,4 -4,-280 500,-280 500,4 -4,4"/>
<text text-anchor="start" x="227.0091" y="-42.4" font-family="sans-serif" font-weight="bold" font-size="14.00" fill="#000000">Legend</text>
<polygon fill="#ffffb3" stroke="transparent" points="14,-10 14,-30 34,-30 34,-10 14,-10"/>
<text text-anchor="start" x="37.629" y="-15.4" font-family="sans-serif" font-size="14.00" fill="#000000"> &#160;Declarations</text>
<polygon fill="#8dd3c7" stroke="transparent" points="127,-10 127,-30 147,-30 147,-10 127,-10"/>
<text text-anchor="start" x="150.7251" y="-15.4" font-family="sans-serif" font-size="14.00" fill="#000000"> &#160;Module</text>
<polygon fill="#80b1d3" stroke="transparent" points="213,-10 213,-30 233,-30 233,-10 213,-10"/>
<text text-anchor="start" x="236.7812" y="-15.4" font-family="sans-serif" font-size="14.00" fill="#000000"> &#160;Bootstrap</text>
<polygon fill="#fdb462" stroke="transparent" points="310,-10 310,-30 330,-30 330,-10 310,-10"/>
<text text-anchor="start" x="333.6732" y="-15.4" font-family="sans-serif" font-size="14.00" fill="#000000"> &#160;Providers</text>
<polygon fill="#fb8072" stroke="transparent" points="406,-10 406,-30 426,-30 426,-10 406,-10"/>
<text text-anchor="start" x="429.7258" y="-15.4" font-family="sans-serif" font-size="14.00" fill="#000000"> &#160;Exports</text>
<g id="clust1" class="cluster">
<title>cluster_SharedModule</title>
<polygon fill="none" stroke="#000000" stroke-dasharray="1,5" points="10,-70 10,-268 486,-268 486,-70 10,-70"/>
</g>
<g id="clust2" class="cluster">
<title>cluster_SharedModule_declarations</title>
<polygon fill="none" stroke="#000000" points="340,-78 340,-130 478,-130 478,-78 340,-78"/>
</g>
<g id="clust4" class="cluster">
<title>cluster_SharedModule_imports</title>
<polygon fill="none" stroke="#000000" points="18,-78 18,-130 332,-130 332,-78 18,-78"/>
</g>
<g id="clust5" class="cluster">
<title>cluster_SharedModule_exports</title>
<polygon fill="none" stroke="#000000" points="94,-208 94,-260 404,-260 404,-208 94,-208"/>
</g>
<!-- HeaderComponent -->
<g id="node1" class="node">
<title>HeaderComponent</title>
<polygon fill="#ffffb3" stroke="#000000" points="469.7437,-122 348.2563,-122 348.2563,-86 469.7437,-86 469.7437,-122"/>
<text text-anchor="middle" x="409" y="-99.8" font-family="Times,serif" font-size="14.00" fill="#000000">HeaderComponent</text>
</g>
<!-- SharedModule -->
<g id="node2" class="node">
<title>SharedModule</title>
<polygon fill="#8dd3c7" stroke="#000000" points="307.4231,-187 304.4231,-191 283.4231,-191 280.4231,-187 208.5769,-187 208.5769,-151 307.4231,-151 307.4231,-187"/>
<text text-anchor="middle" x="258" y="-164.8" font-family="Times,serif" font-size="14.00" fill="#000000">SharedModule</text>
</g>
<!-- HeaderComponent&#45;&gt;SharedModule -->
<g id="edge1" class="edge">
<title>HeaderComponent&#45;&gt;SharedModule</title>
<path fill="none" stroke="#000000" d="M371.875,-122.1061C371.875,-141.3391 371.875,-169 371.875,-169 371.875,-169 317.2849,-169 317.2849,-169"/>
<polygon fill="#000000" stroke="#000000" points="317.285,-165.5001 307.2849,-169 317.2849,-172.5001 317.285,-165.5001"/>
</g>
<!-- HeaderComponent  -->
<g id="node5" class="node">
<title>HeaderComponent </title>
<polygon fill="#fb8072" stroke="#000000" points="395.7436,-252 270.2564,-252 270.2564,-216 395.7436,-216 395.7436,-252"/>
<text text-anchor="middle" x="333" y="-229.8" font-family="Times,serif" font-size="14.00" fill="#000000">HeaderComponent </text>
</g>
<!-- SharedModule&#45;&gt;HeaderComponent  -->
<g id="edge4" class="edge">
<title>SharedModule&#45;&gt;HeaderComponent </title>
<path fill="none" stroke="#000000" stroke-dasharray="5,2" d="M288.7947,-187.1061C288.7947,-187.1061 288.7947,-205.991 288.7947,-205.991"/>
<polygon fill="#000000" stroke="#000000" points="285.2948,-205.9909 288.7947,-215.991 292.2948,-205.991 285.2948,-205.9909"/>
</g>
<!-- UploadPackageModule  -->
<g id="node6" class="node">
<title>UploadPackageModule </title>
<polygon fill="#fb8072" stroke="#000000" points="252.4026,-252 101.5974,-252 101.5974,-216 252.4026,-216 252.4026,-252"/>
<text text-anchor="middle" x="177" y="-229.8" font-family="Times,serif" font-size="14.00" fill="#000000">UploadPackageModule </text>
</g>
<!-- SharedModule&#45;&gt;UploadPackageModule  -->
<g id="edge5" class="edge">
<title>SharedModule&#45;&gt;UploadPackageModule </title>
<path fill="none" stroke="#000000" stroke-dasharray="5,2" d="M230.6201,-187.1061C230.6201,-187.1061 230.6201,-205.991 230.6201,-205.991"/>
<polygon fill="#000000" stroke="#000000" points="227.1202,-205.9909 230.6201,-215.991 234.1202,-205.991 227.1202,-205.9909"/>
</g>
<!-- BidTranslateModule -->
<g id="node3" class="node">
<title>BidTranslateModule</title>
<polygon fill="#8dd3c7" stroke="#000000" points="323.8599,-122 320.8599,-126 299.8599,-126 296.8599,-122 192.1401,-122 192.1401,-86 323.8599,-86 323.8599,-122"/>
<text text-anchor="middle" x="258" y="-99.8" font-family="Times,serif" font-size="14.00" fill="#000000">BidTranslateModule</text>
</g>
<!-- BidTranslateModule&#45;&gt;SharedModule -->
<g id="edge2" class="edge">
<title>BidTranslateModule&#45;&gt;SharedModule</title>
<path fill="none" stroke="#000000" d="M258,-122.1061C258,-122.1061 258,-140.991 258,-140.991"/>
<polygon fill="#000000" stroke="#000000" points="254.5001,-140.9909 258,-150.991 261.5001,-140.991 254.5001,-140.9909"/>
</g>
<!-- UploadPackageModule -->
<g id="node4" class="node">
<title>UploadPackageModule</title>
<polygon fill="#8dd3c7" stroke="#000000" points="173.9032,-122 170.9032,-126 149.9032,-126 146.9032,-122 26.0968,-122 26.0968,-86 173.9032,-86 173.9032,-122"/>
<text text-anchor="middle" x="100" y="-99.8" font-family="Times,serif" font-size="14.00" fill="#000000">UploadPackageModule</text>
</g>
<!-- UploadPackageModule&#45;&gt;SharedModule -->
<g id="edge3" class="edge">
<title>UploadPackageModule&#45;&gt;SharedModule</title>
<path fill="none" stroke="#000000" d="M137.625,-122.1061C137.625,-141.3391 137.625,-169 137.625,-169 137.625,-169 198.6916,-169 198.6916,-169"/>
<polygon fill="#000000" stroke="#000000" points="198.6916,-172.5001 208.6916,-169 198.6915,-165.5001 198.6916,-172.5001"/>
</g>
</g>
</svg>
