<?xml version="1.0" encoding="UTF-8" standalone="no"?>
<!DOCTYPE svg PUBLIC "-//W3C//DTD SVG 1.1//EN"
 "http://www.w3.org/Graphics/SVG/1.1/DTD/svg11.dtd">
<!-- Generated by graphviz version 2.40.1 (20161225.0304)
 -->
<!-- Title: dependencies Pages: 1 -->
<svg width="504pt" height="211pt"
 viewBox="0.00 0.00 504.00 211.00" xmlns="http://www.w3.org/2000/svg" xmlns:xlink="http://www.w3.org/1999/xlink">
<g id="graph0" class="graph" transform="scale(1 1) rotate(0) translate(4 207)">
<title>dependencies</title>
<polygon fill="#ffffff" stroke="transparent" points="-4,4 -4,-207 500,-207 500,4 -4,4"/>
<text text-anchor="start" x="227.0091" y="-42.4" font-family="sans-serif" font-weight="bold" font-size="14.00" fill="#000000">Legend</text>
<polygon fill="#ffffb3" stroke="transparent" points="14,-10 14,-30 34,-30 34,-10 14,-10"/>
<text text-anchor="start" x="37.629" y="-15.4" font-family="sans-serif" font-size="14.00" fill="#000000"> &#160;Declarations</text>
<polygon fill="#8dd3c7" stroke="transparent" points="127,-10 127,-30 147,-30 147,-10 127,-10"/>
<text text-anchor="start" x="150.7251" y="-15.4" font-family="sans-serif" font-size="14.00" fill="#000000"> &#160;Module</text>
<polygon fill="#80b1d3" stroke="transparent" points="213,-10 213,-30 233,-30 233,-10 213,-10"/>
<text text-anchor="start" x="236.7812" y="-15.4" font-family="sans-serif" font-size="14.00" fill="#000000"> &#160;Bootstrap</text>
<polygon fill="#fdb462" stroke="transparent" points="310,-10 310,-30 330,-30 330,-10 310,-10"/>
<text text-anchor="start" x="333.6732" y="-15.4" font-family="sans-serif" font-size="14.00" fill="#000000"> &#160;Providers</text>
<polygon fill="#fb8072" stroke="transparent" points="406,-10 406,-30 426,-30 426,-10 406,-10"/>
<text text-anchor="start" x="429.7258" y="-15.4" font-family="sans-serif" font-size="14.00" fill="#000000"> &#160;Exports</text>
<g id="clust1" class="cluster">
<title>cluster_AppModule</title>
<polygon fill="none" stroke="#000000" stroke-dasharray="1,5" points="47,-70 47,-195 449,-195 449,-70 47,-70"/>
</g>
<g id="clust3" class="cluster">
<title>cluster_AppModule_imports</title>
<polygon fill="none" stroke="#000000" points="193,-78 193,-130 441,-130 441,-78 193,-78"/>
</g>
<g id="clust6" class="cluster">
<title>cluster_AppModule_providers</title>
<polygon fill="none" stroke="#000000" points="55,-78 55,-130 185,-130 185,-78 55,-78"/>
</g>
<!-- DocumentsModule -->
<g id="node1" class="node">
<title>DocumentsModule</title>
<polygon fill="#8dd3c7" stroke="#000000" points="432.8118,-122 429.8118,-126 408.8118,-126 405.8118,-122 309.1882,-122 309.1882,-86 432.8118,-86 432.8118,-122"/>
<text text-anchor="middle" x="371" y="-99.8" font-family="Times,serif" font-size="14.00" fill="#000000">DocumentsModule</text>
</g>
<!-- AppModule -->
<g id="node3" class="node">
<title>AppModule</title>
<polygon fill="#8dd3c7" stroke="#000000" points="287.6571,-187 284.6571,-191 263.6571,-191 260.6571,-187 204.3429,-187 204.3429,-151 287.6571,-151 287.6571,-187"/>
<text text-anchor="middle" x="246" y="-164.8" font-family="Times,serif" font-size="14.00" fill="#000000">AppModule</text>
</g>
<!-- DocumentsModule&#45;&gt;AppModule -->
<g id="edge1" class="edge">
<title>DocumentsModule&#45;&gt;AppModule</title>
<path fill="none" stroke="#000000" d="M371,-122.1061C371,-141.3391 371,-169 371,-169 371,-169 297.9709,-169 297.9709,-169"/>
<polygon fill="#000000" stroke="#000000" points="297.971,-165.5001 287.9709,-169 297.9709,-172.5001 297.971,-165.5001"/>
</g>
<!-- StepsModule -->
<g id="node2" class="node">
<title>StepsModule</title>
<polygon fill="#8dd3c7" stroke="#000000" points="290.8823,-122 287.8823,-126 266.8823,-126 263.8823,-122 201.1177,-122 201.1177,-86 290.8823,-86 290.8823,-122"/>
<text text-anchor="middle" x="246" y="-99.8" font-family="Times,serif" font-size="14.00" fill="#000000">StepsModule</text>
</g>
<!-- StepsModule&#45;&gt;AppModule -->
<g id="edge2" class="edge">
<title>StepsModule&#45;&gt;AppModule</title>
<path fill="none" stroke="#000000" d="M246,-122.1061C246,-122.1061 246,-140.991 246,-140.991"/>
<polygon fill="#000000" stroke="#000000" points="242.5001,-140.9909 246,-150.991 249.5001,-140.991 242.5001,-140.9909"/>
</g>
<!-- AppService -->
<g id="node4" class="node">
<title>AppService</title>
<ellipse fill="#fdb462" stroke="#000000" cx="120" cy="-104" rx="56.7406" ry="18"/>
<text text-anchor="middle" x="120" y="-99.8" font-family="Times,serif" font-size="14.00" fill="#000000">AppService</text>
</g>
<!-- AppService&#45;&gt;AppModule -->
<g id="edge3" class="edge">
<title>AppService&#45;&gt;AppModule</title>
<path fill="none" stroke="#000000" d="M120,-122.1061C120,-141.3391 120,-169 120,-169 120,-169 194.0438,-169 194.0438,-169"/>
<polygon fill="#000000" stroke="#000000" points="194.0439,-172.5001 204.0438,-169 194.0438,-165.5001 194.0439,-172.5001"/>
</g>
</g>
</svg>
