<?xml version="1.0" encoding="UTF-8" standalone="no"?>
<!DOCTYPE svg PUBLIC "-//W3C//DTD SVG 1.1//EN"
 "http://www.w3.org/Graphics/SVG/1.1/DTD/svg11.dtd">
<!-- Generated by graphviz version 2.40.1 (20161225.0304)
 -->
<!-- Title: dependencies Pages: 1 -->
<svg width="556pt" height="284pt"
 viewBox="0.00 0.00 556.00 284.00" xmlns="http://www.w3.org/2000/svg" xmlns:xlink="http://www.w3.org/1999/xlink">
<g id="graph0" class="graph" transform="scale(1 1) rotate(0) translate(4 280)">
<title>dependencies</title>
<polygon fill="#ffffff" stroke="transparent" points="-4,4 -4,-280 552,-280 552,4 -4,4"/>
<text text-anchor="start" x="253.0091" y="-42.4" font-family="sans-serif" font-weight="bold" font-size="14.00" fill="#000000">Legend</text>
<polygon fill="#ffffb3" stroke="transparent" points="40,-10 40,-30 60,-30 60,-10 40,-10"/>
<text text-anchor="start" x="63.629" y="-15.4" font-family="sans-serif" font-size="14.00" fill="#000000"> &#160;Declarations</text>
<polygon fill="#8dd3c7" stroke="transparent" points="153,-10 153,-30 173,-30 173,-10 153,-10"/>
<text text-anchor="start" x="176.7251" y="-15.4" font-family="sans-serif" font-size="14.00" fill="#000000"> &#160;Module</text>
<polygon fill="#80b1d3" stroke="transparent" points="239,-10 239,-30 259,-30 259,-10 239,-10"/>
<text text-anchor="start" x="262.7812" y="-15.4" font-family="sans-serif" font-size="14.00" fill="#000000"> &#160;Bootstrap</text>
<polygon fill="#fdb462" stroke="transparent" points="336,-10 336,-30 356,-30 356,-10 336,-10"/>
<text text-anchor="start" x="359.6732" y="-15.4" font-family="sans-serif" font-size="14.00" fill="#000000"> &#160;Providers</text>
<polygon fill="#fb8072" stroke="transparent" points="432,-10 432,-30 452,-30 452,-10 432,-10"/>
<text text-anchor="start" x="455.7258" y="-15.4" font-family="sans-serif" font-size="14.00" fill="#000000"> &#160;Exports</text>
<g id="clust1" class="cluster">
<title>cluster_VpcManagerModule</title>
<polygon fill="none" stroke="#000000" stroke-dasharray="1,5" points="8,-70 8,-268 540,-268 540,-70 8,-70"/>
</g>
<g id="clust2" class="cluster">
<title>cluster_VpcManagerModule_declarations</title>
<polygon fill="none" stroke="#000000" points="334,-78 334,-130 532,-130 532,-78 334,-78"/>
</g>
<g id="clust4" class="cluster">
<title>cluster_VpcManagerModule_imports</title>
<polygon fill="none" stroke="#000000" points="16,-78 16,-130 326,-130 326,-78 16,-78"/>
</g>
<g id="clust5" class="cluster">
<title>cluster_VpcManagerModule_exports</title>
<polygon fill="none" stroke="#000000" points="168,-208 168,-260 370,-260 370,-208 168,-208"/>
</g>
<!-- VpcManagerPageComponent -->
<g id="node1" class="node">
<title>VpcManagerPageComponent</title>
<polygon fill="#ffffb3" stroke="#000000" points="523.6148,-122 342.3852,-122 342.3852,-86 523.6148,-86 523.6148,-122"/>
<text text-anchor="middle" x="433" y="-99.8" font-family="Times,serif" font-size="14.00" fill="#000000">VpcManagerPageComponent</text>
</g>
<!-- VpcManagerModule -->
<g id="node2" class="node">
<title>VpcManagerModule</title>
<polygon fill="#8dd3c7" stroke="#000000" points="335.1205,-187 332.1205,-191 311.1205,-191 308.1205,-187 202.8795,-187 202.8795,-151 335.1205,-151 335.1205,-187"/>
<text text-anchor="middle" x="269" y="-164.8" font-family="Times,serif" font-size="14.00" fill="#000000">VpcManagerModule</text>
</g>
<!-- VpcManagerPageComponent&#45;&gt;VpcManagerModule -->
<g id="edge1" class="edge">
<title>VpcManagerPageComponent&#45;&gt;VpcManagerModule</title>
<path fill="none" stroke="#000000" d="M341.9821,-104C332.7926,-104 326.7605,-104 326.7605,-104 326.7605,-104 326.7605,-140.8939 326.7605,-140.8939"/>
<polygon fill="#000000" stroke="#000000" points="323.2606,-140.8938 326.7605,-150.8939 330.2606,-140.8939 323.2606,-140.8938"/>
</g>
<!-- VpcManagerPageComponent  -->
<g id="node5" class="node">
<title>VpcManagerPageComponent </title>
<polygon fill="#fb8072" stroke="#000000" points="361.6144,-252 176.3856,-252 176.3856,-216 361.6144,-216 361.6144,-252"/>
<text text-anchor="middle" x="269" y="-229.8" font-family="Times,serif" font-size="14.00" fill="#000000">VpcManagerPageComponent </text>
</g>
<!-- VpcManagerModule&#45;&gt;VpcManagerPageComponent  -->
<g id="edge4" class="edge">
<title>VpcManagerModule&#45;&gt;VpcManagerPageComponent </title>
<path fill="none" stroke="#000000" stroke-dasharray="5,2" d="M269,-187.1061C269,-187.1061 269,-205.991 269,-205.991"/>
<polygon fill="#000000" stroke="#000000" points="265.5001,-205.9909 269,-215.991 272.5001,-205.991 265.5001,-205.9909"/>
</g>
<!-- SharedModule -->
<g id="node3" class="node">
<title>SharedModule</title>
<polygon fill="#8dd3c7" stroke="#000000" points="318.4231,-122 315.4231,-126 294.4231,-126 291.4231,-122 219.5769,-122 219.5769,-86 318.4231,-86 318.4231,-122"/>
<text text-anchor="middle" x="269" y="-99.8" font-family="Times,serif" font-size="14.00" fill="#000000">SharedModule</text>
</g>
<!-- SharedModule&#45;&gt;VpcManagerModule -->
<g id="edge2" class="edge">
<title>SharedModule&#45;&gt;VpcManagerModule</title>
<path fill="none" stroke="#000000" d="M269,-122.1061C269,-122.1061 269,-140.991 269,-140.991"/>
<polygon fill="#000000" stroke="#000000" points="265.5001,-140.9909 269,-150.991 272.5001,-140.991 265.5001,-140.9909"/>
</g>
<!-- VpcManagerRoutingModule -->
<g id="node4" class="node">
<title>VpcManagerRoutingModule</title>
<polygon fill="#8dd3c7" stroke="#000000" points="201.738,-122 198.738,-126 177.738,-126 174.738,-122 24.262,-122 24.262,-86 201.738,-86 201.738,-122"/>
<text text-anchor="middle" x="113" y="-99.8" font-family="Times,serif" font-size="14.00" fill="#000000">VpcManagerRoutingModule</text>
</g>
<!-- VpcManagerRoutingModule&#45;&gt;VpcManagerModule -->
<g id="edge3" class="edge">
<title>VpcManagerRoutingModule&#45;&gt;VpcManagerModule</title>
<path fill="none" stroke="#000000" d="M201.8198,-104C207.6403,-104 211.2395,-104 211.2395,-104 211.2395,-104 211.2395,-140.8939 211.2395,-140.8939"/>
<polygon fill="#000000" stroke="#000000" points="207.7395,-140.8938 211.2395,-150.8939 214.7395,-140.8939 207.7395,-140.8938"/>
</g>
</g>
</svg>
