<?xml version="1.0" encoding="UTF-8" standalone="no"?>
<!DOCTYPE svg PUBLIC "-//W3C//DTD SVG 1.1//EN"
 "http://www.w3.org/Graphics/SVG/1.1/DTD/svg11.dtd">
<!-- Generated by graphviz version 2.40.1 (20161225.0304)
 -->
<!-- Title: dependencies Pages: 1 -->
<svg width="584pt" height="284pt"
 viewBox="0.00 0.00 584.00 284.00" xmlns="http://www.w3.org/2000/svg" xmlns:xlink="http://www.w3.org/1999/xlink">
<g id="graph0" class="graph" transform="scale(1 1) rotate(0) translate(4 280)">
<title>dependencies</title>
<polygon fill="#ffffff" stroke="transparent" points="-4,4 -4,-280 580,-280 580,4 -4,4"/>
<text text-anchor="start" x="267.0091" y="-42.4" font-family="sans-serif" font-weight="bold" font-size="14.00" fill="#000000">Legend</text>
<polygon fill="#ffffb3" stroke="transparent" points="54,-10 54,-30 74,-30 74,-10 54,-10"/>
<text text-anchor="start" x="77.629" y="-15.4" font-family="sans-serif" font-size="14.00" fill="#000000"> &#160;Declarations</text>
<polygon fill="#8dd3c7" stroke="transparent" points="167,-10 167,-30 187,-30 187,-10 167,-10"/>
<text text-anchor="start" x="190.7251" y="-15.4" font-family="sans-serif" font-size="14.00" fill="#000000"> &#160;Module</text>
<polygon fill="#80b1d3" stroke="transparent" points="253,-10 253,-30 273,-30 273,-10 253,-10"/>
<text text-anchor="start" x="276.7812" y="-15.4" font-family="sans-serif" font-size="14.00" fill="#000000"> &#160;Bootstrap</text>
<polygon fill="#fdb462" stroke="transparent" points="350,-10 350,-30 370,-30 370,-10 350,-10"/>
<text text-anchor="start" x="373.6732" y="-15.4" font-family="sans-serif" font-size="14.00" fill="#000000"> &#160;Providers</text>
<polygon fill="#fb8072" stroke="transparent" points="446,-10 446,-30 466,-30 466,-10 446,-10"/>
<text text-anchor="start" x="469.7258" y="-15.4" font-family="sans-serif" font-size="14.00" fill="#000000"> &#160;Exports</text>
<g id="clust1" class="cluster">
<title>cluster_UploadPackageModule</title>
<polygon fill="none" stroke="#000000" stroke-dasharray="1,5" points="8,-70 8,-268 568,-268 568,-70 8,-70"/>
</g>
<g id="clust2" class="cluster">
<title>cluster_UploadPackageModule_declarations</title>
<polygon fill="none" stroke="#000000" points="348,-78 348,-130 560,-130 560,-78 348,-78"/>
</g>
<g id="clust4" class="cluster">
<title>cluster_UploadPackageModule_imports</title>
<polygon fill="none" stroke="#000000" points="16,-78 16,-130 340,-130 340,-78 16,-78"/>
</g>
<g id="clust5" class="cluster">
<title>cluster_UploadPackageModule_exports</title>
<polygon fill="none" stroke="#000000" points="175,-208 175,-260 391,-260 391,-208 175,-208"/>
</g>
<!-- UploadPackagePageComponent -->
<g id="node1" class="node">
<title>UploadPackagePageComponent</title>
<polygon fill="#ffffb3" stroke="#000000" points="552.3974,-122 355.6026,-122 355.6026,-86 552.3974,-86 552.3974,-122"/>
<text text-anchor="middle" x="454" y="-99.8" font-family="Times,serif" font-size="14.00" fill="#000000">UploadPackagePageComponent</text>
</g>
<!-- UploadPackageModule -->
<g id="node2" class="node">
<title>UploadPackageModule</title>
<polygon fill="#8dd3c7" stroke="#000000" points="356.9032,-187 353.9032,-191 332.9032,-191 329.9032,-187 209.0968,-187 209.0968,-151 356.9032,-151 356.9032,-187"/>
<text text-anchor="middle" x="283" y="-164.8" font-family="Times,serif" font-size="14.00" fill="#000000">UploadPackageModule</text>
</g>
<!-- UploadPackagePageComponent&#45;&gt;UploadPackageModule -->
<g id="edge1" class="edge">
<title>UploadPackagePageComponent&#45;&gt;UploadPackageModule</title>
<path fill="none" stroke="#000000" d="M355.7776,-104C348.5446,-104 344.0063,-104 344.0063,-104 344.0063,-104 344.0063,-140.8939 344.0063,-140.8939"/>
<polygon fill="#000000" stroke="#000000" points="340.5064,-140.8938 344.0063,-150.8939 347.5064,-140.8939 340.5064,-140.8938"/>
</g>
<!-- UploadPackagePageComponent  -->
<g id="node5" class="node">
<title>UploadPackagePageComponent </title>
<polygon fill="#fb8072" stroke="#000000" points="382.897,-252 183.103,-252 183.103,-216 382.897,-216 382.897,-252"/>
<text text-anchor="middle" x="283" y="-229.8" font-family="Times,serif" font-size="14.00" fill="#000000">UploadPackagePageComponent </text>
</g>
<!-- UploadPackageModule&#45;&gt;UploadPackagePageComponent  -->
<g id="edge4" class="edge">
<title>UploadPackageModule&#45;&gt;UploadPackagePageComponent </title>
<path fill="none" stroke="#000000" stroke-dasharray="5,2" d="M283,-187.1061C283,-187.1061 283,-205.991 283,-205.991"/>
<polygon fill="#000000" stroke="#000000" points="279.5001,-205.9909 283,-215.991 286.5001,-205.991 279.5001,-205.9909"/>
</g>
<!-- SharedModule -->
<g id="node3" class="node">
<title>SharedModule</title>
<polygon fill="#8dd3c7" stroke="#000000" points="332.4231,-122 329.4231,-126 308.4231,-126 305.4231,-122 233.5769,-122 233.5769,-86 332.4231,-86 332.4231,-122"/>
<text text-anchor="middle" x="283" y="-99.8" font-family="Times,serif" font-size="14.00" fill="#000000">SharedModule</text>
</g>
<!-- SharedModule&#45;&gt;UploadPackageModule -->
<g id="edge2" class="edge">
<title>SharedModule&#45;&gt;UploadPackageModule</title>
<path fill="none" stroke="#000000" d="M283,-122.1061C283,-122.1061 283,-140.991 283,-140.991"/>
<polygon fill="#000000" stroke="#000000" points="279.5001,-140.9909 283,-150.991 286.5001,-140.991 279.5001,-140.9909"/>
</g>
<!-- UploadPackageRoutingModule -->
<g id="node4" class="node">
<title>UploadPackageRoutingModule</title>
<polygon fill="#8dd3c7" stroke="#000000" points="216.021,-122 213.021,-126 192.021,-126 189.021,-122 23.979,-122 23.979,-86 216.021,-86 216.021,-122"/>
<text text-anchor="middle" x="120" y="-99.8" font-family="Times,serif" font-size="14.00" fill="#000000">UploadPackageRoutingModule</text>
</g>
<!-- UploadPackageRoutingModule&#45;&gt;UploadPackageModule -->
<g id="edge3" class="edge">
<title>UploadPackageRoutingModule&#45;&gt;UploadPackageModule</title>
<path fill="none" stroke="#000000" d="M216.0702,-104C221.6336,-104 225.0246,-104 225.0246,-104 225.0246,-104 225.0246,-140.8939 225.0246,-140.8939"/>
<polygon fill="#000000" stroke="#000000" points="221.5246,-140.8938 225.0246,-150.8939 228.5246,-140.8939 221.5246,-140.8938"/>
</g>
</g>
</svg>
