<?xml version="1.0" encoding="UTF-8" standalone="no"?>
<!DOCTYPE svg PUBLIC "-//W3C//DTD SVG 1.1//EN"
 "http://www.w3.org/Graphics/SVG/1.1/DTD/svg11.dtd">
<!-- Generated by graphviz version 2.40.1 (20161225.0304)
 -->
<!-- Title: dependencies Pages: 1 -->
<svg width="912pt" height="211pt"
 viewBox="0.00 0.00 912.00 211.00" xmlns="http://www.w3.org/2000/svg" xmlns:xlink="http://www.w3.org/1999/xlink">
<g id="graph0" class="graph" transform="scale(1 1) rotate(0) translate(4 207)">
<title>dependencies</title>
<polygon fill="#ffffff" stroke="transparent" points="-4,4 -4,-207 908,-207 908,4 -4,4"/>
<text text-anchor="start" x="431.0091" y="-42.4" font-family="sans-serif" font-weight="bold" font-size="14.00" fill="#000000">Legend</text>
<polygon fill="#ffffb3" stroke="transparent" points="218,-10 218,-30 238,-30 238,-10 218,-10"/>
<text text-anchor="start" x="241.629" y="-15.4" font-family="sans-serif" font-size="14.00" fill="#000000"> &#160;Declarations</text>
<polygon fill="#8dd3c7" stroke="transparent" points="331,-10 331,-30 351,-30 351,-10 331,-10"/>
<text text-anchor="start" x="354.7251" y="-15.4" font-family="sans-serif" font-size="14.00" fill="#000000"> &#160;Module</text>
<polygon fill="#80b1d3" stroke="transparent" points="417,-10 417,-30 437,-30 437,-10 417,-10"/>
<text text-anchor="start" x="440.7812" y="-15.4" font-family="sans-serif" font-size="14.00" fill="#000000"> &#160;Bootstrap</text>
<polygon fill="#fdb462" stroke="transparent" points="514,-10 514,-30 534,-30 534,-10 514,-10"/>
<text text-anchor="start" x="537.6732" y="-15.4" font-family="sans-serif" font-size="14.00" fill="#000000"> &#160;Providers</text>
<polygon fill="#fb8072" stroke="transparent" points="610,-10 610,-30 630,-30 630,-10 610,-10"/>
<text text-anchor="start" x="633.7258" y="-15.4" font-family="sans-serif" font-size="14.00" fill="#000000"> &#160;Exports</text>
<g id="clust1" class="cluster">
<title>cluster_Step3Module</title>
<polygon fill="none" stroke="#000000" stroke-dasharray="1,5" points="8,-70 8,-195 896,-195 896,-70 8,-70"/>
</g>
<g id="clust2" class="cluster">
<title>cluster_Step3Module_declarations</title>
<polygon fill="none" stroke="#000000" points="292,-78 292,-130 888,-130 888,-78 292,-78"/>
</g>
<g id="clust6" class="cluster">
<title>cluster_Step3Module_imports</title>
<polygon fill="none" stroke="#000000" points="16,-78 16,-130 284,-130 284,-78 16,-78"/>
</g>
<!-- CirculationDistributedPageComponent -->
<g id="node1" class="node">
<title>CirculationDistributedPageComponent</title>
<polygon fill="#ffffb3" stroke="#000000" points="880.0223,-122 645.9777,-122 645.9777,-86 880.0223,-86 880.0223,-122"/>
<text text-anchor="middle" x="763" y="-99.8" font-family="Times,serif" font-size="14.00" fill="#000000">CirculationDistributedPageComponent</text>
</g>
<!-- Step3Module -->
<g id="node4" class="node">
<title>Step3Module</title>
<polygon fill="#8dd3c7" stroke="#000000" points="414.9387,-187 411.9387,-191 390.9387,-191 387.9387,-187 323.0613,-187 323.0613,-151 414.9387,-151 414.9387,-187"/>
<text text-anchor="middle" x="369" y="-164.8" font-family="Times,serif" font-size="14.00" fill="#000000">Step3Module</text>
</g>
<!-- CirculationDistributedPageComponent&#45;&gt;Step3Module -->
<g id="edge1" class="edge">
<title>CirculationDistributedPageComponent&#45;&gt;Step3Module</title>
<path fill="none" stroke="#000000" d="M763,-122.2843C763,-143.3211 763,-175 763,-175 763,-175 424.9679,-175 424.9679,-175"/>
<polygon fill="#000000" stroke="#000000" points="424.9679,-171.5001 414.9679,-175 424.9679,-178.5001 424.9679,-171.5001"/>
</g>
<!-- CirculationPageComponent -->
<g id="node2" class="node">
<title>CirculationPageComponent</title>
<polygon fill="#ffffb3" stroke="#000000" points="627.5336,-122 456.4664,-122 456.4664,-86 627.5336,-86 627.5336,-122"/>
<text text-anchor="middle" x="542" y="-99.8" font-family="Times,serif" font-size="14.00" fill="#000000">CirculationPageComponent</text>
</g>
<!-- CirculationPageComponent&#45;&gt;Step3Module -->
<g id="edge2" class="edge">
<title>CirculationPageComponent&#45;&gt;Step3Module</title>
<path fill="none" stroke="#000000" d="M542,-122.0225C542,-139.3734 542,-163 542,-163 542,-163 424.9066,-163 424.9066,-163"/>
<polygon fill="#000000" stroke="#000000" points="424.9067,-159.5001 414.9066,-163 424.9066,-166.5001 424.9067,-159.5001"/>
</g>
<!-- MainPageComponent -->
<g id="node3" class="node">
<title>MainPageComponent</title>
<polygon fill="#ffffb3" stroke="#000000" points="438.094,-122 299.906,-122 299.906,-86 438.094,-86 438.094,-122"/>
<text text-anchor="middle" x="369" y="-99.8" font-family="Times,serif" font-size="14.00" fill="#000000">MainPageComponent</text>
</g>
<!-- MainPageComponent&#45;&gt;Step3Module -->
<g id="edge3" class="edge">
<title>MainPageComponent&#45;&gt;Step3Module</title>
<path fill="none" stroke="#000000" d="M369,-122.1061C369,-122.1061 369,-140.991 369,-140.991"/>
<polygon fill="#000000" stroke="#000000" points="365.5001,-140.9909 369,-150.991 372.5001,-140.991 365.5001,-140.9909"/>
</g>
<!-- SharedModule -->
<g id="node5" class="node">
<title>SharedModule</title>
<polygon fill="#8dd3c7" stroke="#000000" points="276.4231,-122 273.4231,-126 252.4231,-126 249.4231,-122 177.5769,-122 177.5769,-86 276.4231,-86 276.4231,-122"/>
<text text-anchor="middle" x="227" y="-99.8" font-family="Times,serif" font-size="14.00" fill="#000000">SharedModule</text>
</g>
<!-- SharedModule&#45;&gt;Step3Module -->
<g id="edge4" class="edge">
<title>SharedModule&#45;&gt;Step3Module</title>
<path fill="none" stroke="#000000" d="M227,-122.0225C227,-139.3734 227,-163 227,-163 227,-163 312.8967,-163 312.8967,-163"/>
<polygon fill="#000000" stroke="#000000" points="312.8967,-166.5001 322.8967,-163 312.8966,-159.5001 312.8967,-166.5001"/>
</g>
<!-- Step3RoutingModule -->
<g id="node6" class="node">
<title>Step3RoutingModule</title>
<polygon fill="#8dd3c7" stroke="#000000" points="160.0561,-122 157.0561,-126 136.0561,-126 133.0561,-122 23.9439,-122 23.9439,-86 160.0561,-86 160.0561,-122"/>
<text text-anchor="middle" x="92" y="-99.8" font-family="Times,serif" font-size="14.00" fill="#000000">Step3RoutingModule</text>
</g>
<!-- Step3RoutingModule&#45;&gt;Step3Module -->
<g id="edge5" class="edge">
<title>Step3RoutingModule&#45;&gt;Step3Module</title>
<path fill="none" stroke="#000000" d="M92,-122.2843C92,-143.3211 92,-175 92,-175 92,-175 313.2591,-175 313.2591,-175"/>
<polygon fill="#000000" stroke="#000000" points="313.2591,-178.5001 323.2591,-175 313.259,-171.5001 313.2591,-178.5001"/>
</g>
</g>
</svg>
