<?xml version="1.0" encoding="UTF-8" standalone="no"?>
<!DOCTYPE svg PUBLIC "-//W3C//DTD SVG 1.1//EN"
 "http://www.w3.org/Graphics/SVG/1.1/DTD/svg11.dtd">
<!-- Generated by graphviz version 2.40.1 (20161225.0304)
 -->
<!-- Title: dependencies Pages: 1 -->
<svg width="504pt" height="287pt"
 viewBox="0.00 0.00 504.00 287.00" xmlns="http://www.w3.org/2000/svg" xmlns:xlink="http://www.w3.org/1999/xlink">
<g id="graph0" class="graph" transform="scale(1 1) rotate(0) translate(4 283)">
<title>dependencies</title>
<polygon fill="#ffffff" stroke="transparent" points="-4,4 -4,-283 500,-283 500,4 -4,4"/>
<text text-anchor="start" x="227.0091" y="-42.4" font-family="sans-serif" font-weight="bold" font-size="14.00" fill="#000000">Legend</text>
<polygon fill="#ffffb3" stroke="transparent" points="14,-10 14,-30 34,-30 34,-10 14,-10"/>
<text text-anchor="start" x="37.629" y="-15.4" font-family="sans-serif" font-size="14.00" fill="#000000"> &#160;Declarations</text>
<polygon fill="#8dd3c7" stroke="transparent" points="127,-10 127,-30 147,-30 147,-10 127,-10"/>
<text text-anchor="start" x="150.7251" y="-15.4" font-family="sans-serif" font-size="14.00" fill="#000000"> &#160;Module</text>
<polygon fill="#80b1d3" stroke="transparent" points="213,-10 213,-30 233,-30 233,-10 213,-10"/>
<text text-anchor="start" x="236.7812" y="-15.4" font-family="sans-serif" font-size="14.00" fill="#000000"> &#160;Bootstrap</text>
<polygon fill="#fdb462" stroke="transparent" points="310,-10 310,-30 330,-30 330,-10 310,-10"/>
<text text-anchor="start" x="333.6732" y="-15.4" font-family="sans-serif" font-size="14.00" fill="#000000"> &#160;Providers</text>
<polygon fill="#fb8072" stroke="transparent" points="406,-10 406,-30 426,-30 426,-10 406,-10"/>
<text text-anchor="start" x="429.7258" y="-15.4" font-family="sans-serif" font-size="14.00" fill="#000000"> &#160;Exports</text>
<g id="clust1" class="cluster">
<title>cluster_AppModule</title>
<polygon fill="none" stroke="#000000" stroke-dasharray="1,5" points="25,-146 25,-271 427,-271 427,-146 25,-146"/>
</g>
<g id="clust3" class="cluster">
<title>cluster_AppModule_imports</title>
<polygon fill="none" stroke="#000000" points="171,-154 171,-206 419,-206 419,-154 171,-154"/>
</g>
<g id="clust6" class="cluster">
<title>cluster_AppModule_providers</title>
<polygon fill="none" stroke="#000000" points="33,-154 33,-206 163,-206 163,-154 33,-154"/>
</g>
<g id="clust7" class="cluster">
<title>cluster_DocumentsModule</title>
<polygon fill="none" stroke="#000000" stroke-dasharray="1,5" points="117,-70 117,-138 309,-138 309,-70 117,-70"/>
</g>
<g id="clust12" class="cluster">
<title>cluster_DocumentsModule_providers</title>
<polygon fill="none" stroke="#000000" points="125,-78 125,-130 301,-130 301,-78 125,-78"/>
</g>
<g id="clust13" class="cluster">
<title>cluster_StepsModule</title>
<polygon fill="none" stroke="#000000" stroke-dasharray="1,5" points="317,-70 317,-138 471,-138 471,-70 317,-70"/>
</g>
<g id="clust18" class="cluster">
<title>cluster_StepsModule_providers</title>
<polygon fill="none" stroke="#000000" points="325,-78 325,-130 463,-130 463,-78 325,-78"/>
</g>
<!-- DocumentsModule -->
<g id="node1" class="node">
<title>DocumentsModule</title>
<polygon fill="#8dd3c7" stroke="#000000" points="302.8118,-198 299.8118,-202 278.8118,-202 275.8118,-198 179.1882,-198 179.1882,-162 302.8118,-162 302.8118,-198"/>
<text text-anchor="middle" x="241" y="-175.8" font-family="Times,serif" font-size="14.00" fill="#000000">DocumentsModule</text>
</g>
<!-- AppModule -->
<g id="node3" class="node">
<title>AppModule</title>
<polygon fill="#8dd3c7" stroke="#000000" points="282.6571,-263 279.6571,-267 258.6571,-267 255.6571,-263 199.3429,-263 199.3429,-227 282.6571,-227 282.6571,-263"/>
<text text-anchor="middle" x="241" y="-240.8" font-family="Times,serif" font-size="14.00" fill="#000000">AppModule</text>
</g>
<!-- DocumentsModule&#45;&gt;AppModule -->
<g id="edge1" class="edge">
<title>DocumentsModule&#45;&gt;AppModule</title>
<path fill="none" stroke="#000000" d="M241,-198.1061C241,-198.1061 241,-216.991 241,-216.991"/>
<polygon fill="#000000" stroke="#000000" points="237.5001,-216.9909 241,-226.991 244.5001,-216.991 237.5001,-216.9909"/>
</g>
<!-- StepsModule -->
<g id="node2" class="node">
<title>StepsModule</title>
<polygon fill="#8dd3c7" stroke="#000000" points="410.8823,-198 407.8823,-202 386.8823,-202 383.8823,-198 321.1177,-198 321.1177,-162 410.8823,-162 410.8823,-198"/>
<text text-anchor="middle" x="366" y="-175.8" font-family="Times,serif" font-size="14.00" fill="#000000">StepsModule</text>
</g>
<!-- StepsModule&#45;&gt;AppModule -->
<g id="edge2" class="edge">
<title>StepsModule&#45;&gt;AppModule</title>
<path fill="none" stroke="#000000" d="M366,-198.1061C366,-217.3391 366,-245 366,-245 366,-245 292.9709,-245 292.9709,-245"/>
<polygon fill="#000000" stroke="#000000" points="292.971,-241.5001 282.9709,-245 292.9709,-248.5001 292.971,-241.5001"/>
</g>
<!-- AppService -->
<g id="node4" class="node">
<title>AppService</title>
<ellipse fill="#fdb462" stroke="#000000" cx="98" cy="-180" rx="56.7406" ry="18"/>
<text text-anchor="middle" x="98" y="-175.8" font-family="Times,serif" font-size="14.00" fill="#000000">AppService</text>
</g>
<!-- AppService&#45;&gt;AppModule -->
<g id="edge3" class="edge">
<title>AppService&#45;&gt;AppModule</title>
<path fill="none" stroke="#000000" d="M98,-198.1061C98,-217.3391 98,-245 98,-245 98,-245 189.2541,-245 189.2541,-245"/>
<polygon fill="#000000" stroke="#000000" points="189.2541,-248.5001 199.2541,-245 189.254,-241.5001 189.2541,-248.5001"/>
</g>
<!-- DocumentService -->
<g id="node5" class="node">
<title>DocumentService</title>
<ellipse fill="#fdb462" stroke="#000000" cx="213" cy="-104" rx="80.4364" ry="18"/>
<text text-anchor="middle" x="213" y="-99.8" font-family="Times,serif" font-size="14.00" fill="#000000">DocumentService</text>
</g>
<!-- DocumentService&#45;&gt;DocumentsModule -->
<g id="edge4" class="edge">
<title>DocumentService&#45;&gt;DocumentsModule</title>
<path fill="none" stroke="#000000" d="M236.2811,-121.2456C236.2811,-121.2456 236.2811,-151.7629 236.2811,-151.7629"/>
<polygon fill="#000000" stroke="#000000" points="232.7812,-151.7628 236.2811,-161.7629 239.7812,-151.7629 232.7812,-151.7628"/>
</g>
<!-- StepsService -->
<g id="node6" class="node">
<title>StepsService</title>
<ellipse fill="#fdb462" stroke="#000000" cx="394" cy="-104" rx="60.8294" ry="18"/>
<text text-anchor="middle" x="394" y="-99.8" font-family="Times,serif" font-size="14.00" fill="#000000">StepsService</text>
</g>
<!-- StepsService&#45;&gt;StepsModule -->
<g id="edge5" class="edge">
<title>StepsService&#45;&gt;StepsModule</title>
<path fill="none" stroke="#000000" d="M372.0132,-120.8669C372.0132,-120.8669 372.0132,-151.8535 372.0132,-151.8535"/>
<polygon fill="#000000" stroke="#000000" points="368.5133,-151.8534 372.0132,-161.8535 375.5133,-151.8535 368.5133,-151.8534"/>
</g>
</g>
</svg>
