<?xml version="1.0" encoding="UTF-8" standalone="no"?>
<!DOCTYPE svg PUBLIC "-//W3C//DTD SVG 1.1//EN"
 "http://www.w3.org/Graphics/SVG/1.1/DTD/svg11.dtd">
<!-- Generated by graphviz version 2.40.1 (20161225.0304)
 -->
<!-- Title: dependencies Pages: 1 -->
<svg width="543pt" height="284pt"
 viewBox="0.00 0.00 543.00 284.00" xmlns="http://www.w3.org/2000/svg" xmlns:xlink="http://www.w3.org/1999/xlink">
<g id="graph0" class="graph" transform="scale(1 1) rotate(0) translate(4 280)">
<title>dependencies</title>
<polygon fill="#ffffff" stroke="transparent" points="-4,4 -4,-280 539,-280 539,4 -4,4"/>
<text text-anchor="start" x="246.5091" y="-42.4" font-family="sans-serif" font-weight="bold" font-size="14.00" fill="#000000">Legend</text>
<polygon fill="#ffffb3" stroke="transparent" points="33.5,-10 33.5,-30 53.5,-30 53.5,-10 33.5,-10"/>
<text text-anchor="start" x="57.129" y="-15.4" font-family="sans-serif" font-size="14.00" fill="#000000"> &#160;Declarations</text>
<polygon fill="#8dd3c7" stroke="transparent" points="146.5,-10 146.5,-30 166.5,-30 166.5,-10 146.5,-10"/>
<text text-anchor="start" x="170.2251" y="-15.4" font-family="sans-serif" font-size="14.00" fill="#000000"> &#160;Module</text>
<polygon fill="#80b1d3" stroke="transparent" points="232.5,-10 232.5,-30 252.5,-30 252.5,-10 232.5,-10"/>
<text text-anchor="start" x="256.2812" y="-15.4" font-family="sans-serif" font-size="14.00" fill="#000000"> &#160;Bootstrap</text>
<polygon fill="#fdb462" stroke="transparent" points="329.5,-10 329.5,-30 349.5,-30 349.5,-10 329.5,-10"/>
<text text-anchor="start" x="353.1732" y="-15.4" font-family="sans-serif" font-size="14.00" fill="#000000"> &#160;Providers</text>
<polygon fill="#fb8072" stroke="transparent" points="425.5,-10 425.5,-30 445.5,-30 445.5,-10 425.5,-10"/>
<text text-anchor="start" x="449.2258" y="-15.4" font-family="sans-serif" font-size="14.00" fill="#000000"> &#160;Exports</text>
<g id="clust1" class="cluster">
<title>cluster_SharedModule</title>
<polygon fill="none" stroke="#000000" stroke-dasharray="1,5" points="8,-70 8,-268 527,-268 527,-70 8,-70"/>
</g>
<g id="clust2" class="cluster">
<title>cluster_SharedModule_declarations</title>
<polygon fill="none" stroke="#000000" points="188,-78 188,-130 514,-130 514,-78 188,-78"/>
</g>
<g id="clust5" class="cluster">
<title>cluster_SharedModule_imports</title>
<polygon fill="none" stroke="#000000" points="16,-78 16,-130 180,-130 180,-78 16,-78"/>
</g>
<g id="clust6" class="cluster">
<title>cluster_SharedModule_exports</title>
<polygon fill="none" stroke="#000000" points="16,-208 16,-260 519,-260 519,-208 16,-208"/>
</g>
<!-- HeaderComponent -->
<g id="node1" class="node">
<title>HeaderComponent</title>
<polygon fill="#ffffb3" stroke="#000000" points="505.7437,-122 384.2563,-122 384.2563,-86 505.7437,-86 505.7437,-122"/>
<text text-anchor="middle" x="445" y="-99.8" font-family="Times,serif" font-size="14.00" fill="#000000">HeaderComponent</text>
</g>
<!-- SharedModule -->
<g id="node3" class="node">
<title>SharedModule</title>
<polygon fill="#8dd3c7" stroke="#000000" points="329.4231,-187 326.4231,-191 305.4231,-191 302.4231,-187 230.5769,-187 230.5769,-151 329.4231,-151 329.4231,-187"/>
<text text-anchor="middle" x="280" y="-164.8" font-family="Times,serif" font-size="14.00" fill="#000000">SharedModule</text>
</g>
<!-- HeaderComponent&#45;&gt;SharedModule -->
<g id="edge1" class="edge">
<title>HeaderComponent&#45;&gt;SharedModule</title>
<path fill="none" stroke="#000000" d="M465.7072,-122.0225C465.7072,-139.3734 465.7072,-163 465.7072,-163 465.7072,-163 339.2786,-163 339.2786,-163"/>
<polygon fill="#000000" stroke="#000000" points="339.2786,-159.5001 329.2786,-163 339.2785,-166.5001 339.2786,-159.5001"/>
</g>
<!-- SelectLanguageComponent -->
<g id="node2" class="node">
<title>SelectLanguageComponent</title>
<polygon fill="#ffffb3" stroke="#000000" points="366.2366,-122 195.7634,-122 195.7634,-86 366.2366,-86 366.2366,-122"/>
<text text-anchor="middle" x="281" y="-99.8" font-family="Times,serif" font-size="14.00" fill="#000000">SelectLanguageComponent</text>
</g>
<!-- SelectLanguageComponent&#45;&gt;SharedModule -->
<g id="edge2" class="edge">
<title>SelectLanguageComponent&#45;&gt;SharedModule</title>
<path fill="none" stroke="#000000" d="M280,-122.1061C280,-122.1061 280,-140.991 280,-140.991"/>
<polygon fill="#000000" stroke="#000000" points="276.5001,-140.9909 280,-150.991 283.5001,-140.991 276.5001,-140.9909"/>
</g>
<!-- HeaderComponent  -->
<g id="node5" class="node">
<title>HeaderComponent </title>
<polygon fill="#fb8072" stroke="#000000" points="510.7436,-252 385.2564,-252 385.2564,-216 510.7436,-216 510.7436,-252"/>
<text text-anchor="middle" x="448" y="-229.8" font-family="Times,serif" font-size="14.00" fill="#000000">HeaderComponent </text>
</g>
<!-- SharedModule&#45;&gt;HeaderComponent  -->
<g id="edge4" class="edge">
<title>SharedModule&#45;&gt;HeaderComponent </title>
<path fill="none" stroke="#000000" stroke-dasharray="5,2" d="M329.2741,-175C371.4972,-175 425.5428,-175 425.5428,-175 425.5428,-175 425.5428,-205.9775 425.5428,-205.9775"/>
<polygon fill="#000000" stroke="#000000" points="422.0429,-205.9774 425.5428,-215.9775 429.0429,-205.9775 422.0429,-205.9774"/>
</g>
<!-- SelectLanguageComponent  -->
<g id="node6" class="node">
<title>SelectLanguageComponent </title>
<polygon fill="#fb8072" stroke="#000000" points="367.2366,-252 192.7634,-252 192.7634,-216 367.2366,-216 367.2366,-252"/>
<text text-anchor="middle" x="280" y="-229.8" font-family="Times,serif" font-size="14.00" fill="#000000">SelectLanguageComponent </text>
</g>
<!-- SharedModule&#45;&gt;SelectLanguageComponent  -->
<g id="edge5" class="edge">
<title>SharedModule&#45;&gt;SelectLanguageComponent </title>
<path fill="none" stroke="#000000" stroke-dasharray="5,2" d="M280,-187.1061C280,-187.1061 280,-205.991 280,-205.991"/>
<polygon fill="#000000" stroke="#000000" points="276.5001,-205.9909 280,-215.991 283.5001,-205.991 276.5001,-205.9909"/>
</g>
<!-- UploadPackageModule  -->
<g id="node7" class="node">
<title>UploadPackageModule </title>
<polygon fill="#fb8072" stroke="#000000" points="174.4026,-252 23.5974,-252 23.5974,-216 174.4026,-216 174.4026,-252"/>
<text text-anchor="middle" x="99" y="-229.8" font-family="Times,serif" font-size="14.00" fill="#000000">UploadPackageModule </text>
</g>
<!-- SharedModule&#45;&gt;UploadPackageModule  -->
<g id="edge6" class="edge">
<title>SharedModule&#45;&gt;UploadPackageModule </title>
<path fill="none" stroke="#000000" stroke-dasharray="5,2" d="M230.6192,-175C184.4493,-175 122.5671,-175 122.5671,-175 122.5671,-175 122.5671,-205.9775 122.5671,-205.9775"/>
<polygon fill="#000000" stroke="#000000" points="119.067,-205.9775 122.5671,-215.9775 126.067,-205.9774 119.067,-205.9775"/>
</g>
<!-- UploadPackageModule -->
<g id="node4" class="node">
<title>UploadPackageModule</title>
<polygon fill="#8dd3c7" stroke="#000000" points="171.9032,-122 168.9032,-126 147.9032,-126 144.9032,-122 24.0968,-122 24.0968,-86 171.9032,-86 171.9032,-122"/>
<text text-anchor="middle" x="98" y="-99.8" font-family="Times,serif" font-size="14.00" fill="#000000">UploadPackageModule</text>
</g>
<!-- UploadPackageModule&#45;&gt;SharedModule -->
<g id="edge3" class="edge">
<title>UploadPackageModule&#45;&gt;SharedModule</title>
<path fill="none" stroke="#000000" d="M73.4329,-122.0225C73.4329,-139.3734 73.4329,-163 73.4329,-163 73.4329,-163 220.7845,-163 220.7845,-163"/>
<polygon fill="#000000" stroke="#000000" points="220.7845,-166.5001 230.7845,-163 220.7844,-159.5001 220.7845,-166.5001"/>
</g>
</g>
</svg>
