<?xml version="1.0" encoding="UTF-8" standalone="no"?>
<!DOCTYPE svg PUBLIC "-//W3C//DTD SVG 1.1//EN"
 "http://www.w3.org/Graphics/SVG/1.1/DTD/svg11.dtd">
<!-- Generated by graphviz version 2.40.1 (20161225.0304)
 -->
<!-- Title: dependencies Pages: 1 -->
<svg width="739pt" height="284pt"
 viewBox="0.00 0.00 739.00 284.00" xmlns="http://www.w3.org/2000/svg" xmlns:xlink="http://www.w3.org/1999/xlink">
<g id="graph0" class="graph" transform="scale(1 1) rotate(0) translate(4 280)">
<title>dependencies</title>
<polygon fill="#ffffff" stroke="transparent" points="-4,4 -4,-280 735,-280 735,4 -4,4"/>
<text text-anchor="start" x="344.5091" y="-42.4" font-family="sans-serif" font-weight="bold" font-size="14.00" fill="#000000">Legend</text>
<polygon fill="#ffffb3" stroke="transparent" points="131.5,-10 131.5,-30 151.5,-30 151.5,-10 131.5,-10"/>
<text text-anchor="start" x="155.129" y="-15.4" font-family="sans-serif" font-size="14.00" fill="#000000"> &#160;Declarations</text>
<polygon fill="#8dd3c7" stroke="transparent" points="244.5,-10 244.5,-30 264.5,-30 264.5,-10 244.5,-10"/>
<text text-anchor="start" x="268.2251" y="-15.4" font-family="sans-serif" font-size="14.00" fill="#000000"> &#160;Module</text>
<polygon fill="#80b1d3" stroke="transparent" points="330.5,-10 330.5,-30 350.5,-30 350.5,-10 330.5,-10"/>
<text text-anchor="start" x="354.2812" y="-15.4" font-family="sans-serif" font-size="14.00" fill="#000000"> &#160;Bootstrap</text>
<polygon fill="#fdb462" stroke="transparent" points="427.5,-10 427.5,-30 447.5,-30 447.5,-10 427.5,-10"/>
<text text-anchor="start" x="451.1732" y="-15.4" font-family="sans-serif" font-size="14.00" fill="#000000"> &#160;Providers</text>
<polygon fill="#fb8072" stroke="transparent" points="523.5,-10 523.5,-30 543.5,-30 543.5,-10 523.5,-10"/>
<text text-anchor="start" x="547.2258" y="-15.4" font-family="sans-serif" font-size="14.00" fill="#000000"> &#160;Exports</text>
<g id="clust1" class="cluster">
<title>cluster_VpcManagerModule</title>
<polygon fill="none" stroke="#000000" stroke-dasharray="1,5" points="8,-70 8,-268 723,-268 723,-70 8,-70"/>
</g>
<g id="clust2" class="cluster">
<title>cluster_VpcManagerModule_declarations</title>
<polygon fill="none" stroke="#000000" points="334,-78 334,-130 715,-130 715,-78 334,-78"/>
</g>
<g id="clust5" class="cluster">
<title>cluster_VpcManagerModule_imports</title>
<polygon fill="none" stroke="#000000" points="16,-78 16,-130 326,-130 326,-78 16,-78"/>
</g>
<g id="clust6" class="cluster">
<title>cluster_VpcManagerModule_exports</title>
<polygon fill="none" stroke="#000000" points="250,-208 250,-260 452,-260 452,-208 250,-208"/>
</g>
<!-- ModalConfirmComponent -->
<g id="node1" class="node">
<title>ModalConfirmComponent</title>
<polygon fill="#ffffb3" stroke="#000000" points="706.8215,-122 541.1785,-122 541.1785,-86 706.8215,-86 706.8215,-122"/>
<text text-anchor="middle" x="624" y="-99.8" font-family="Times,serif" font-size="14.00" fill="#000000">ModalConfirmComponent</text>
</g>
<!-- VpcManagerModule -->
<g id="node3" class="node">
<title>VpcManagerModule</title>
<polygon fill="#8dd3c7" stroke="#000000" points="417.1205,-187 414.1205,-191 393.1205,-191 390.1205,-187 284.8795,-187 284.8795,-151 417.1205,-151 417.1205,-187"/>
<text text-anchor="middle" x="351" y="-164.8" font-family="Times,serif" font-size="14.00" fill="#000000">VpcManagerModule</text>
</g>
<!-- ModalConfirmComponent&#45;&gt;VpcManagerModule -->
<g id="edge1" class="edge">
<title>ModalConfirmComponent&#45;&gt;VpcManagerModule</title>
<path fill="none" stroke="#000000" d="M624,-122.1061C624,-141.3391 624,-169 624,-169 624,-169 427.4342,-169 427.4342,-169"/>
<polygon fill="#000000" stroke="#000000" points="427.4343,-165.5001 417.4342,-169 427.4342,-172.5001 427.4343,-165.5001"/>
</g>
<!-- VpcManagerPageComponent -->
<g id="node2" class="node">
<title>VpcManagerPageComponent</title>
<polygon fill="#ffffb3" stroke="#000000" points="523.6148,-122 342.3852,-122 342.3852,-86 523.6148,-86 523.6148,-122"/>
<text text-anchor="middle" x="433" y="-99.8" font-family="Times,serif" font-size="14.00" fill="#000000">VpcManagerPageComponent</text>
</g>
<!-- VpcManagerPageComponent&#45;&gt;VpcManagerModule -->
<g id="edge2" class="edge">
<title>VpcManagerPageComponent&#45;&gt;VpcManagerModule</title>
<path fill="none" stroke="#000000" d="M379.7514,-122.1061C379.7514,-122.1061 379.7514,-140.991 379.7514,-140.991"/>
<polygon fill="#000000" stroke="#000000" points="376.2515,-140.9909 379.7514,-150.991 383.2515,-140.991 376.2515,-140.9909"/>
</g>
<!-- VpcManagerPageComponent  -->
<g id="node6" class="node">
<title>VpcManagerPageComponent </title>
<polygon fill="#fb8072" stroke="#000000" points="443.6144,-252 258.3856,-252 258.3856,-216 443.6144,-216 443.6144,-252"/>
<text text-anchor="middle" x="351" y="-229.8" font-family="Times,serif" font-size="14.00" fill="#000000">VpcManagerPageComponent </text>
</g>
<!-- VpcManagerModule&#45;&gt;VpcManagerPageComponent  -->
<g id="edge5" class="edge">
<title>VpcManagerModule&#45;&gt;VpcManagerPageComponent </title>
<path fill="none" stroke="#000000" stroke-dasharray="5,2" d="M351,-187.1061C351,-187.1061 351,-205.991 351,-205.991"/>
<polygon fill="#000000" stroke="#000000" points="347.5001,-205.9909 351,-215.991 354.5001,-205.991 347.5001,-205.9909"/>
</g>
<!-- SharedModule -->
<g id="node4" class="node">
<title>SharedModule</title>
<polygon fill="#8dd3c7" stroke="#000000" points="318.4231,-122 315.4231,-126 294.4231,-126 291.4231,-122 219.5769,-122 219.5769,-86 318.4231,-86 318.4231,-122"/>
<text text-anchor="middle" x="269" y="-99.8" font-family="Times,serif" font-size="14.00" fill="#000000">SharedModule</text>
</g>
<!-- SharedModule&#45;&gt;VpcManagerModule -->
<g id="edge3" class="edge">
<title>SharedModule&#45;&gt;VpcManagerModule</title>
<path fill="none" stroke="#000000" d="M301.4506,-122.1061C301.4506,-122.1061 301.4506,-140.991 301.4506,-140.991"/>
<polygon fill="#000000" stroke="#000000" points="297.9506,-140.9909 301.4506,-150.991 304.9506,-140.991 297.9506,-140.9909"/>
</g>
<!-- VpcManagerRoutingModule -->
<g id="node5" class="node">
<title>VpcManagerRoutingModule</title>
<polygon fill="#8dd3c7" stroke="#000000" points="201.738,-122 198.738,-126 177.738,-126 174.738,-122 24.262,-122 24.262,-86 201.738,-86 201.738,-122"/>
<text text-anchor="middle" x="113" y="-99.8" font-family="Times,serif" font-size="14.00" fill="#000000">VpcManagerRoutingModule</text>
</g>
<!-- VpcManagerRoutingModule&#45;&gt;VpcManagerModule -->
<g id="edge4" class="edge">
<title>VpcManagerRoutingModule&#45;&gt;VpcManagerModule</title>
<path fill="none" stroke="#000000" d="M113,-122.1061C113,-141.3391 113,-169 113,-169 113,-169 274.7037,-169 274.7037,-169"/>
<polygon fill="#000000" stroke="#000000" points="274.7038,-172.5001 284.7037,-169 274.7037,-165.5001 274.7038,-172.5001"/>
</g>
</g>
</svg>
