<?xml version="1.0" encoding="UTF-8" standalone="no"?>
<!DOCTYPE svg PUBLIC "-//W3C//DTD SVG 1.1//EN"
 "http://www.w3.org/Graphics/SVG/1.1/DTD/svg11.dtd">
<!-- Generated by graphviz version 2.40.1 (20161225.0304)
 -->
<!-- Title: dependencies Pages: 1 -->
<svg width="869pt" height="284pt"
 viewBox="0.00 0.00 869.00 284.00" xmlns="http://www.w3.org/2000/svg" xmlns:xlink="http://www.w3.org/1999/xlink">
<g id="graph0" class="graph" transform="scale(1 1) rotate(0) translate(4 280)">
<title>dependencies</title>
<polygon fill="#ffffff" stroke="transparent" points="-4,4 -4,-280 865,-280 865,4 -4,4"/>
<text text-anchor="start" x="409.5091" y="-42.4" font-family="sans-serif" font-weight="bold" font-size="14.00" fill="#000000">Legend</text>
<polygon fill="#ffffb3" stroke="transparent" points="196.5,-10 196.5,-30 216.5,-30 216.5,-10 196.5,-10"/>
<text text-anchor="start" x="220.129" y="-15.4" font-family="sans-serif" font-size="14.00" fill="#000000"> &#160;Declarations</text>
<polygon fill="#8dd3c7" stroke="transparent" points="309.5,-10 309.5,-30 329.5,-30 329.5,-10 309.5,-10"/>
<text text-anchor="start" x="333.2251" y="-15.4" font-family="sans-serif" font-size="14.00" fill="#000000"> &#160;Module</text>
<polygon fill="#80b1d3" stroke="transparent" points="395.5,-10 395.5,-30 415.5,-30 415.5,-10 395.5,-10"/>
<text text-anchor="start" x="419.2812" y="-15.4" font-family="sans-serif" font-size="14.00" fill="#000000"> &#160;Bootstrap</text>
<polygon fill="#fdb462" stroke="transparent" points="492.5,-10 492.5,-30 512.5,-30 512.5,-10 492.5,-10"/>
<text text-anchor="start" x="516.1732" y="-15.4" font-family="sans-serif" font-size="14.00" fill="#000000"> &#160;Providers</text>
<polygon fill="#fb8072" stroke="transparent" points="588.5,-10 588.5,-30 608.5,-30 608.5,-10 588.5,-10"/>
<text text-anchor="start" x="612.2258" y="-15.4" font-family="sans-serif" font-size="14.00" fill="#000000"> &#160;Exports</text>
<g id="clust1" class="cluster">
<title>cluster_DistributionListModule</title>
<polygon fill="none" stroke="#000000" stroke-dasharray="1,5" points="8,-70 8,-268 853,-268 853,-70 8,-70"/>
</g>
<g id="clust2" class="cluster">
<title>cluster_DistributionListModule_declarations</title>
<polygon fill="none" stroke="#000000" points="306,-78 306,-130 845,-130 845,-78 306,-78"/>
</g>
<g id="clust6" class="cluster">
<title>cluster_DistributionListModule_imports</title>
<polygon fill="none" stroke="#000000" points="16,-78 16,-130 298,-130 298,-78 16,-78"/>
</g>
<g id="clust7" class="cluster">
<title>cluster_DistributionListModule_exports</title>
<polygon fill="none" stroke="#000000" points="282,-208 282,-260 500,-260 500,-208 282,-208"/>
</g>
<!-- DistributionListPageComponent -->
<g id="node1" class="node">
<title>DistributionListPageComponent</title>
<polygon fill="#ffffb3" stroke="#000000" points="836.9874,-122 639.0126,-122 639.0126,-86 836.9874,-86 836.9874,-122"/>
<text text-anchor="middle" x="738" y="-99.8" font-family="Times,serif" font-size="14.00" fill="#000000">DistributionListPageComponent</text>
</g>
<!-- DistributionListModule -->
<g id="node4" class="node">
<title>DistributionListModule</title>
<polygon fill="#8dd3c7" stroke="#000000" points="465.493,-187 462.493,-191 441.493,-191 438.493,-187 316.507,-187 316.507,-151 465.493,-151 465.493,-187"/>
<text text-anchor="middle" x="391" y="-164.8" font-family="Times,serif" font-size="14.00" fill="#000000">DistributionListModule</text>
</g>
<!-- DistributionListPageComponent&#45;&gt;DistributionListModule -->
<g id="edge1" class="edge">
<title>DistributionListPageComponent&#45;&gt;DistributionListModule</title>
<path fill="none" stroke="#000000" d="M738,-122.2843C738,-143.3211 738,-175 738,-175 738,-175 475.8666,-175 475.8666,-175"/>
<polygon fill="#000000" stroke="#000000" points="475.8667,-171.5001 465.8666,-175 475.8666,-178.5001 475.8667,-171.5001"/>
</g>
<!-- EditFormComponent -->
<g id="node2" class="node">
<title>EditFormComponent</title>
<polygon fill="#ffffb3" stroke="#000000" points="621.5,-122 486.5,-122 486.5,-86 621.5,-86 621.5,-122"/>
<text text-anchor="middle" x="554" y="-99.8" font-family="Times,serif" font-size="14.00" fill="#000000">EditFormComponent</text>
</g>
<!-- EditFormComponent&#45;&gt;DistributionListModule -->
<g id="edge2" class="edge">
<title>EditFormComponent&#45;&gt;DistributionListModule</title>
<path fill="none" stroke="#000000" d="M556.6219,-122.0225C556.6219,-139.3734 556.6219,-163 556.6219,-163 556.6219,-163 475.5743,-163 475.5743,-163"/>
<polygon fill="#000000" stroke="#000000" points="475.5743,-159.5001 465.5743,-163 475.5743,-166.5001 475.5743,-159.5001"/>
</g>
<!-- TableViewerComponent -->
<g id="node3" class="node">
<title>TableViewerComponent</title>
<polygon fill="#ffffb3" stroke="#000000" points="468.3989,-122 313.6011,-122 313.6011,-86 468.3989,-86 468.3989,-122"/>
<text text-anchor="middle" x="391" y="-99.8" font-family="Times,serif" font-size="14.00" fill="#000000">TableViewerComponent</text>
</g>
<!-- TableViewerComponent&#45;&gt;DistributionListModule -->
<g id="edge3" class="edge">
<title>TableViewerComponent&#45;&gt;DistributionListModule</title>
<path fill="none" stroke="#000000" d="M391,-122.1061C391,-122.1061 391,-140.991 391,-140.991"/>
<polygon fill="#000000" stroke="#000000" points="387.5001,-140.9909 391,-150.991 394.5001,-140.991 387.5001,-140.9909"/>
</g>
<!-- DistributionListPageComponent  -->
<g id="node7" class="node">
<title>DistributionListPageComponent </title>
<polygon fill="#fb8072" stroke="#000000" points="491.988,-252 290.012,-252 290.012,-216 491.988,-216 491.988,-252"/>
<text text-anchor="middle" x="391" y="-229.8" font-family="Times,serif" font-size="14.00" fill="#000000">DistributionListPageComponent </text>
</g>
<!-- DistributionListModule&#45;&gt;DistributionListPageComponent  -->
<g id="edge6" class="edge">
<title>DistributionListModule&#45;&gt;DistributionListPageComponent </title>
<path fill="none" stroke="#000000" stroke-dasharray="5,2" d="M391,-187.1061C391,-187.1061 391,-205.991 391,-205.991"/>
<polygon fill="#000000" stroke="#000000" points="387.5001,-205.9909 391,-215.991 394.5001,-205.991 387.5001,-205.9909"/>
</g>
<!-- DistributionListRouting -->
<g id="node5" class="node">
<title>DistributionListRouting</title>
<polygon fill="#8dd3c7" stroke="#000000" points="290.0616,-122 287.0616,-126 266.0616,-126 263.0616,-122 139.9384,-122 139.9384,-86 290.0616,-86 290.0616,-122"/>
<text text-anchor="middle" x="215" y="-99.8" font-family="Times,serif" font-size="14.00" fill="#000000">DistributionListRouting</text>
</g>
<!-- DistributionListRouting&#45;&gt;DistributionListModule -->
<g id="edge4" class="edge">
<title>DistributionListRouting&#45;&gt;DistributionListModule</title>
<path fill="none" stroke="#000000" d="M214.9879,-122.0225C214.9879,-139.3734 214.9879,-163 214.9879,-163 214.9879,-163 306.355,-163 306.355,-163"/>
<polygon fill="#000000" stroke="#000000" points="306.3551,-166.5001 316.355,-163 306.355,-159.5001 306.3551,-166.5001"/>
</g>
<!-- SharedModule -->
<g id="node6" class="node">
<title>SharedModule</title>
<polygon fill="#8dd3c7" stroke="#000000" points="122.4231,-122 119.4231,-126 98.4231,-126 95.4231,-122 23.5769,-122 23.5769,-86 122.4231,-86 122.4231,-122"/>
<text text-anchor="middle" x="73" y="-99.8" font-family="Times,serif" font-size="14.00" fill="#000000">SharedModule</text>
</g>
<!-- SharedModule&#45;&gt;DistributionListModule -->
<g id="edge5" class="edge">
<title>SharedModule&#45;&gt;DistributionListModule</title>
<path fill="none" stroke="#000000" d="M73,-122.2843C73,-143.3211 73,-175 73,-175 73,-175 306.4431,-175 306.4431,-175"/>
<polygon fill="#000000" stroke="#000000" points="306.4432,-178.5001 316.4431,-175 306.4431,-171.5001 306.4432,-178.5001"/>
</g>
</g>
</svg>
