<?xml version="1.0" encoding="UTF-8" standalone="no"?>
<!DOCTYPE svg PUBLIC "-//W3C//DTD SVG 1.1//EN"
 "http://www.w3.org/Graphics/SVG/1.1/DTD/svg11.dtd">
<!-- Generated by graphviz version 2.40.1 (20161225.0304)
 -->
<!-- Title: dependencies Pages: 1 -->
<svg width="504pt" height="211pt"
 viewBox="0.00 0.00 504.00 211.00" xmlns="http://www.w3.org/2000/svg" xmlns:xlink="http://www.w3.org/1999/xlink">
<g id="graph0" class="graph" transform="scale(1 1) rotate(0) translate(4 207)">
<title>dependencies</title>
<polygon fill="#ffffff" stroke="transparent" points="-4,4 -4,-207 500,-207 500,4 -4,4"/>
<text text-anchor="start" x="227.0091" y="-42.4" font-family="sans-serif" font-weight="bold" font-size="14.00" fill="#000000">Legend</text>
<polygon fill="#ffffb3" stroke="transparent" points="14,-10 14,-30 34,-30 34,-10 14,-10"/>
<text text-anchor="start" x="37.629" y="-15.4" font-family="sans-serif" font-size="14.00" fill="#000000"> &#160;Declarations</text>
<polygon fill="#8dd3c7" stroke="transparent" points="127,-10 127,-30 147,-30 147,-10 127,-10"/>
<text text-anchor="start" x="150.7251" y="-15.4" font-family="sans-serif" font-size="14.00" fill="#000000"> &#160;Module</text>
<polygon fill="#80b1d3" stroke="transparent" points="213,-10 213,-30 233,-30 233,-10 213,-10"/>
<text text-anchor="start" x="236.7812" y="-15.4" font-family="sans-serif" font-size="14.00" fill="#000000"> &#160;Bootstrap</text>
<polygon fill="#fdb462" stroke="transparent" points="310,-10 310,-30 330,-30 330,-10 310,-10"/>
<text text-anchor="start" x="333.6732" y="-15.4" font-family="sans-serif" font-size="14.00" fill="#000000"> &#160;Providers</text>
<polygon fill="#fb8072" stroke="transparent" points="406,-10 406,-30 426,-30 426,-10 406,-10"/>
<text text-anchor="start" x="429.7258" y="-15.4" font-family="sans-serif" font-size="14.00" fill="#000000"> &#160;Exports</text>
<g id="clust1" class="cluster">
<title>cluster_BidApiServiceModule</title>
<polygon fill="none" stroke="#000000" stroke-dasharray="1,5" points="92,-70 92,-195 404,-195 404,-70 92,-70"/>
</g>
<g id="clust3" class="cluster">
<title>cluster_BidApiServiceModule_imports</title>
<polygon fill="none" stroke="#000000" points="100,-78 100,-130 396,-130 396,-78 100,-78"/>
</g>
<!-- BidHandleErrorsModule -->
<g id="node1" class="node">
<title>BidHandleErrorsModule</title>
<polygon fill="#8dd3c7" stroke="#000000" points="387.6825,-122 384.6825,-126 363.6825,-126 360.6825,-122 232.3175,-122 232.3175,-86 387.6825,-86 387.6825,-122"/>
<text text-anchor="middle" x="310" y="-99.8" font-family="Times,serif" font-size="14.00" fill="#000000">BidHandleErrorsModule</text>
</g>
<!-- BidApiServiceModule -->
<g id="node3" class="node">
<title>BidApiServiceModule</title>
<polygon fill="#8dd3c7" stroke="#000000" points="311.252,-187 308.252,-191 287.252,-191 284.252,-187 168.748,-187 168.748,-151 311.252,-151 311.252,-187"/>
<text text-anchor="middle" x="240" y="-164.8" font-family="Times,serif" font-size="14.00" fill="#000000">BidApiServiceModule</text>
</g>
<!-- BidHandleErrorsModule&#45;&gt;BidApiServiceModule -->
<g id="edge1" class="edge">
<title>BidHandleErrorsModule&#45;&gt;BidApiServiceModule</title>
<path fill="none" stroke="#000000" d="M271.8923,-122.1061C271.8923,-122.1061 271.8923,-140.991 271.8923,-140.991"/>
<polygon fill="#000000" stroke="#000000" points="268.3924,-140.9909 271.8923,-150.991 275.3924,-140.991 268.3924,-140.9909"/>
</g>
<!-- BidUtilsModule -->
<g id="node2" class="node">
<title>BidUtilsModule</title>
<polygon fill="#8dd3c7" stroke="#000000" points="214.5,-122 211.5,-126 190.5,-126 187.5,-122 107.5,-122 107.5,-86 214.5,-86 214.5,-122"/>
<text text-anchor="middle" x="161" y="-99.8" font-family="Times,serif" font-size="14.00" fill="#000000">BidUtilsModule</text>
</g>
<!-- BidUtilsModule&#45;&gt;BidApiServiceModule -->
<g id="edge2" class="edge">
<title>BidUtilsModule&#45;&gt;BidApiServiceModule</title>
<path fill="none" stroke="#000000" d="M191.5621,-122.1061C191.5621,-122.1061 191.5621,-140.991 191.5621,-140.991"/>
<polygon fill="#000000" stroke="#000000" points="188.0621,-140.9909 191.5621,-150.991 195.0621,-140.991 188.0621,-140.9909"/>
</g>
</g>
</svg>
