<?xml version="1.0" encoding="UTF-8" standalone="no"?>
<!DOCTYPE svg PUBLIC "-//W3C//DTD SVG 1.1//EN"
 "http://www.w3.org/Graphics/SVG/1.1/DTD/svg11.dtd">
<!-- Generated by graphviz version 2.40.1 (20161225.0304)
 -->
<!-- Title: dependencies Pages: 1 -->
<svg width="1222pt" height="284pt"
 viewBox="0.00 0.00 1222.00 284.00" xmlns="http://www.w3.org/2000/svg" xmlns:xlink="http://www.w3.org/1999/xlink">
<g id="graph0" class="graph" transform="scale(1 1) rotate(0) translate(4 280)">
<title>dependencies</title>
<polygon fill="#ffffff" stroke="transparent" points="-4,4 -4,-280 1218,-280 1218,4 -4,4"/>
<text text-anchor="start" x="586.0091" y="-42.4" font-family="sans-serif" font-weight="bold" font-size="14.00" fill="#000000">Legend</text>
<polygon fill="#ffffb3" stroke="transparent" points="373,-10 373,-30 393,-30 393,-10 373,-10"/>
<text text-anchor="start" x="396.629" y="-15.4" font-family="sans-serif" font-size="14.00" fill="#000000"> &#160;Declarations</text>
<polygon fill="#8dd3c7" stroke="transparent" points="486,-10 486,-30 506,-30 506,-10 486,-10"/>
<text text-anchor="start" x="509.7251" y="-15.4" font-family="sans-serif" font-size="14.00" fill="#000000"> &#160;Module</text>
<polygon fill="#80b1d3" stroke="transparent" points="572,-10 572,-30 592,-30 592,-10 572,-10"/>
<text text-anchor="start" x="595.7812" y="-15.4" font-family="sans-serif" font-size="14.00" fill="#000000"> &#160;Bootstrap</text>
<polygon fill="#fdb462" stroke="transparent" points="669,-10 669,-30 689,-30 689,-10 669,-10"/>
<text text-anchor="start" x="692.6732" y="-15.4" font-family="sans-serif" font-size="14.00" fill="#000000"> &#160;Providers</text>
<polygon fill="#fb8072" stroke="transparent" points="765,-10 765,-30 785,-30 785,-10 765,-10"/>
<text text-anchor="start" x="788.7258" y="-15.4" font-family="sans-serif" font-size="14.00" fill="#000000"> &#160;Exports</text>
<g id="clust1" class="cluster">
<title>cluster_AppModule</title>
<polygon fill="none" stroke="#000000" stroke-dasharray="1,5" points="8,-70 8,-268 1206,-268 1206,-70 8,-70"/>
</g>
<g id="clust2" class="cluster">
<title>cluster_AppModule_declarations</title>
<polygon fill="none" stroke="#000000" points="1076,-78 1076,-130 1198,-130 1198,-78 1076,-78"/>
</g>
<g id="clust4" class="cluster">
<title>cluster_AppModule_imports</title>
<polygon fill="none" stroke="#000000" points="210,-78 210,-130 1068,-130 1068,-78 210,-78"/>
</g>
<g id="clust6" class="cluster">
<title>cluster_AppModule_bootstrap</title>
<polygon fill="none" stroke="#000000" points="532,-208 532,-260 656,-260 656,-208 532,-208"/>
</g>
<g id="clust7" class="cluster">
<title>cluster_AppModule_providers</title>
<polygon fill="none" stroke="#000000" points="16,-78 16,-130 202,-130 202,-78 16,-78"/>
</g>
<!-- AppComponent -->
<g id="node1" class="node">
<title>AppComponent</title>
<polygon fill="#ffffb3" stroke="#000000" points="1189.9399,-122 1084.0601,-122 1084.0601,-86 1189.9399,-86 1189.9399,-122"/>
<text text-anchor="middle" x="1137" y="-99.8" font-family="Times,serif" font-size="14.00" fill="#000000">AppComponent</text>
</g>
<!-- AppModule -->
<g id="node2" class="node">
<title>AppModule</title>
<polygon fill="#8dd3c7" stroke="#000000" points="635.6571,-187 632.6571,-191 611.6571,-191 608.6571,-187 552.3429,-187 552.3429,-151 635.6571,-151 635.6571,-187"/>
<text text-anchor="middle" x="594" y="-164.8" font-family="Times,serif" font-size="14.00" fill="#000000">AppModule</text>
</g>
<!-- AppComponent&#45;&gt;AppModule -->
<g id="edge1" class="edge">
<title>AppComponent&#45;&gt;AppModule</title>
<path fill="none" stroke="#000000" d="M1137,-122.2921C1137,-144.2057 1137,-178 1137,-178 1137,-178 645.7067,-178 645.7067,-178"/>
<polygon fill="#000000" stroke="#000000" points="645.7067,-174.5001 635.7067,-178 645.7066,-181.5001 645.7067,-174.5001"/>
</g>
<!-- AppComponent  -->
<g id="node9" class="node">
<title>AppComponent </title>
<polygon fill="#80b1d3" stroke="#000000" points="648.439,-252 539.561,-252 539.561,-216 648.439,-216 648.439,-252"/>
<text text-anchor="middle" x="594" y="-229.8" font-family="Times,serif" font-size="14.00" fill="#000000">AppComponent </text>
</g>
<!-- AppModule&#45;&gt;AppComponent  -->
<g id="edge8" class="edge">
<title>AppModule&#45;&gt;AppComponent </title>
<path fill="none" stroke="#000000" stroke-dasharray="1,5" d="M594,-187.1061C594,-187.1061 594,-205.991 594,-205.991"/>
<polygon fill="#000000" stroke="#000000" points="590.5001,-205.9909 594,-215.991 597.5001,-205.991 590.5001,-205.9909"/>
</g>
<!-- AppRoutingModule -->
<g id="node3" class="node">
<title>AppRoutingModule</title>
<polygon fill="#8dd3c7" stroke="#000000" points="1060.2744,-122 1057.2744,-126 1036.2744,-126 1033.2744,-122 931.7256,-122 931.7256,-86 1060.2744,-86 1060.2744,-122"/>
<text text-anchor="middle" x="996" y="-99.8" font-family="Times,serif" font-size="14.00" fill="#000000">AppRoutingModule</text>
</g>
<!-- AppRoutingModule&#45;&gt;AppModule -->
<g id="edge2" class="edge">
<title>AppRoutingModule&#45;&gt;AppModule</title>
<path fill="none" stroke="#000000" d="M996,-122.1061C996,-141.3391 996,-169 996,-169 996,-169 645.8834,-169 645.8834,-169"/>
<polygon fill="#000000" stroke="#000000" points="645.8834,-165.5001 635.8834,-169 645.8834,-172.5001 645.8834,-165.5001"/>
</g>
<!-- BidApiServiceModule -->
<g id="node4" class="node">
<title>BidApiServiceModule</title>
<polygon fill="#8dd3c7" stroke="#000000" points="913.252,-122 910.252,-126 889.252,-126 886.252,-122 770.748,-122 770.748,-86 913.252,-86 913.252,-122"/>
<text text-anchor="middle" x="842" y="-99.8" font-family="Times,serif" font-size="14.00" fill="#000000">BidApiServiceModule</text>
</g>
<!-- BidApiServiceModule&#45;&gt;AppModule -->
<g id="edge3" class="edge">
<title>BidApiServiceModule&#45;&gt;AppModule</title>
<path fill="none" stroke="#000000" d="M842,-122.027C842,-138.3976 842,-160 842,-160 842,-160 645.7894,-160 645.7894,-160"/>
<polygon fill="#000000" stroke="#000000" points="645.7894,-156.5001 635.7894,-160 645.7893,-163.5001 645.7894,-156.5001"/>
</g>
<!-- BidHandleErrorsModule -->
<g id="node5" class="node">
<title>BidHandleErrorsModule</title>
<polygon fill="#8dd3c7" stroke="#000000" points="752.6825,-122 749.6825,-126 728.6825,-126 725.6825,-122 597.3175,-122 597.3175,-86 752.6825,-86 752.6825,-122"/>
<text text-anchor="middle" x="675" y="-99.8" font-family="Times,serif" font-size="14.00" fill="#000000">BidHandleErrorsModule</text>
</g>
<!-- BidHandleErrorsModule&#45;&gt;AppModule -->
<g id="edge4" class="edge">
<title>BidHandleErrorsModule&#45;&gt;AppModule</title>
<path fill="none" stroke="#000000" d="M616.6185,-122.1061C616.6185,-122.1061 616.6185,-140.991 616.6185,-140.991"/>
<polygon fill="#000000" stroke="#000000" points="613.1186,-140.9909 616.6185,-150.991 620.1186,-140.991 613.1186,-140.9909"/>
</g>
<!-- BidTranslateModule -->
<g id="node6" class="node">
<title>BidTranslateModule</title>
<polygon fill="#8dd3c7" stroke="#000000" points="578.8599,-122 575.8599,-126 554.8599,-126 551.8599,-122 447.1401,-122 447.1401,-86 578.8599,-86 578.8599,-122"/>
<text text-anchor="middle" x="513" y="-99.8" font-family="Times,serif" font-size="14.00" fill="#000000">BidTranslateModule</text>
</g>
<!-- BidTranslateModule&#45;&gt;AppModule -->
<g id="edge5" class="edge">
<title>BidTranslateModule&#45;&gt;AppModule</title>
<path fill="none" stroke="#000000" d="M565.5509,-122.1061C565.5509,-122.1061 565.5509,-140.991 565.5509,-140.991"/>
<polygon fill="#000000" stroke="#000000" points="562.0509,-140.9909 565.5509,-150.991 569.0509,-140.991 562.0509,-140.9909"/>
</g>
<!-- BidUtilsModule -->
<g id="node7" class="node">
<title>BidUtilsModule</title>
<polygon fill="#8dd3c7" stroke="#000000" points="429.5,-122 426.5,-126 405.5,-126 402.5,-122 322.5,-122 322.5,-86 429.5,-86 429.5,-122"/>
<text text-anchor="middle" x="376" y="-99.8" font-family="Times,serif" font-size="14.00" fill="#000000">BidUtilsModule</text>
</g>
<!-- BidUtilsModule&#45;&gt;AppModule -->
<g id="edge6" class="edge">
<title>BidUtilsModule&#45;&gt;AppModule</title>
<path fill="none" stroke="#000000" d="M376,-122.027C376,-138.3976 376,-160 376,-160 376,-160 542.2253,-160 542.2253,-160"/>
<polygon fill="#000000" stroke="#000000" points="542.2254,-163.5001 552.2253,-160 542.2253,-156.5001 542.2254,-163.5001"/>
</g>
<!-- CoreModule -->
<g id="node8" class="node">
<title>CoreModule</title>
<polygon fill="#8dd3c7" stroke="#000000" points="304.2619,-122 301.2619,-126 280.2619,-126 277.2619,-122 217.7381,-122 217.7381,-86 304.2619,-86 304.2619,-122"/>
<text text-anchor="middle" x="261" y="-99.8" font-family="Times,serif" font-size="14.00" fill="#000000">CoreModule</text>
</g>
<!-- CoreModule&#45;&gt;AppModule -->
<g id="edge7" class="edge">
<title>CoreModule&#45;&gt;AppModule</title>
<path fill="none" stroke="#000000" d="M261,-122.1061C261,-141.3391 261,-169 261,-169 261,-169 542.1625,-169 542.1625,-169"/>
<polygon fill="#000000" stroke="#000000" points="542.1625,-172.5001 552.1625,-169 542.1625,-165.5001 542.1625,-172.5001"/>
</g>
<!-- BidHttpInterceptor -->
<g id="node10" class="node">
<title>BidHttpInterceptor</title>
<ellipse fill="#fdb462" stroke="#000000" cx="109" cy="-104" rx="84.5266" ry="18"/>
<text text-anchor="middle" x="109" y="-99.8" font-family="Times,serif" font-size="14.00" fill="#000000">BidHttpInterceptor</text>
</g>
<!-- BidHttpInterceptor&#45;&gt;AppModule -->
<g id="edge9" class="edge">
<title>BidHttpInterceptor&#45;&gt;AppModule</title>
<path fill="none" stroke="#000000" d="M109,-122.2921C109,-144.2057 109,-178 109,-178 109,-178 542.2294,-178 542.2294,-178"/>
<polygon fill="#000000" stroke="#000000" points="542.2294,-181.5001 552.2294,-178 542.2294,-174.5001 542.2294,-181.5001"/>
</g>
</g>
</svg>
