<?xml version="1.0" encoding="UTF-8" standalone="no"?>
<!DOCTYPE svg PUBLIC "-//W3C//DTD SVG 1.1//EN"
 "http://www.w3.org/Graphics/SVG/1.1/DTD/svg11.dtd">
<!-- Generated by graphviz version 2.40.1 (20161225.0304)
 -->
<!-- Title: dependencies Pages: 1 -->
<svg width="5113pt" height="298pt"
 viewBox="0.00 0.00 5113.00 298.00" xmlns="http://www.w3.org/2000/svg" xmlns:xlink="http://www.w3.org/1999/xlink">
<g id="graph0" class="graph" transform="scale(1 1) rotate(0) translate(4 294)">
<title>dependencies</title>
<polygon fill="#ffffff" stroke="transparent" points="-4,4 -4,-294 5109,-294 5109,4 -4,4"/>
<text text-anchor="start" x="2531.5091" y="-42.4" font-family="sans-serif" font-weight="bold" font-size="14.00" fill="#000000">Legend</text>
<polygon fill="#ffffb3" stroke="transparent" points="2318.5,-10 2318.5,-30 2338.5,-30 2338.5,-10 2318.5,-10"/>
<text text-anchor="start" x="2342.129" y="-15.4" font-family="sans-serif" font-size="14.00" fill="#000000"> &#160;Declarations</text>
<polygon fill="#8dd3c7" stroke="transparent" points="2431.5,-10 2431.5,-30 2451.5,-30 2451.5,-10 2431.5,-10"/>
<text text-anchor="start" x="2455.2251" y="-15.4" font-family="sans-serif" font-size="14.00" fill="#000000"> &#160;Module</text>
<polygon fill="#80b1d3" stroke="transparent" points="2517.5,-10 2517.5,-30 2537.5,-30 2537.5,-10 2517.5,-10"/>
<text text-anchor="start" x="2541.2812" y="-15.4" font-family="sans-serif" font-size="14.00" fill="#000000"> &#160;Bootstrap</text>
<polygon fill="#fdb462" stroke="transparent" points="2614.5,-10 2614.5,-30 2634.5,-30 2634.5,-10 2614.5,-10"/>
<text text-anchor="start" x="2638.1732" y="-15.4" font-family="sans-serif" font-size="14.00" fill="#000000"> &#160;Providers</text>
<polygon fill="#fb8072" stroke="transparent" points="2710.5,-10 2710.5,-30 2730.5,-30 2730.5,-10 2710.5,-10"/>
<text text-anchor="start" x="2734.2258" y="-15.4" font-family="sans-serif" font-size="14.00" fill="#000000"> &#160;Exports</text>
<g id="clust1" class="cluster">
<title>cluster_AppModule</title>
<polygon fill="none" stroke="#000000" stroke-dasharray="1,5" points="8,-70 8,-282 403,-282 403,-70 8,-70"/>
</g>
<g id="clust2" class="cluster">
<title>cluster_AppModule_declarations</title>
<polygon fill="none" stroke="#000000" points="273,-78 273,-130 395,-130 395,-78 273,-78"/>
</g>
<g id="clust4" class="cluster">
<title>cluster_AppModule_imports</title>
<polygon fill="none" stroke="#000000" points="16,-78 16,-130 265,-130 265,-78 16,-78"/>
</g>
<g id="clust6" class="cluster">
<title>cluster_AppModule_bootstrap</title>
<polygon fill="none" stroke="#000000" points="131,-222 131,-274 255,-274 255,-222 131,-222"/>
</g>
<g id="clust20" class="cluster">
<title>cluster_DistributionListModule</title>
<polygon fill="none" stroke="#000000" stroke-dasharray="1,5" points="411,-70 411,-282 1257,-282 1257,-70 411,-70"/>
</g>
<g id="clust21" class="cluster">
<title>cluster_DistributionListModule_declarations</title>
<polygon fill="none" stroke="#000000" points="419,-78 419,-130 959,-130 959,-78 419,-78"/>
</g>
<g id="clust25" class="cluster">
<title>cluster_DistributionListModule_imports</title>
<polygon fill="none" stroke="#000000" points="967,-78 967,-130 1249,-130 1249,-78 967,-78"/>
</g>
<g id="clust26" class="cluster">
<title>cluster_DistributionListModule_exports</title>
<polygon fill="none" stroke="#000000" points="774,-222 774,-274 992,-274 992,-222 774,-222"/>
</g>
<g id="clust35" class="cluster">
<title>cluster_SharedModule</title>
<polygon fill="none" stroke="#000000" stroke-dasharray="1,5" points="1265,-146 1265,-214 2289,-214 2289,-146 1265,-146"/>
</g>
<g id="clust36" class="cluster">
<title>cluster_SharedModule_declarations</title>
<polygon fill="none" stroke="#000000" points="1783,-154 1783,-206 2109,-206 2109,-154 1783,-154"/>
</g>
<g id="clust39" class="cluster">
<title>cluster_SharedModule_imports</title>
<polygon fill="none" stroke="#000000" points="2117,-154 2117,-206 2281,-206 2281,-154 2117,-154"/>
</g>
<g id="clust40" class="cluster">
<title>cluster_SharedModule_exports</title>
<polygon fill="none" stroke="#000000" points="1273,-154 1273,-206 1775,-206 1775,-154 1273,-154"/>
</g>
<g id="clust43" class="cluster">
<title>cluster_Step0Module</title>
<polygon fill="none" stroke="#000000" stroke-dasharray="1,5" points="4791,-70 4791,-206 5097,-206 5097,-70 4791,-70"/>
</g>
<g id="clust44" class="cluster">
<title>cluster_Step0Module_declarations</title>
<polygon fill="none" stroke="#000000" points="4959,-78 4959,-130 5089,-130 5089,-78 4959,-78"/>
</g>
<g id="clust46" class="cluster">
<title>cluster_Step0Module_imports</title>
<polygon fill="none" stroke="#000000" points="4799,-78 4799,-130 4951,-130 4951,-78 4799,-78"/>
</g>
<g id="clust56" class="cluster">
<title>cluster_Step3Module</title>
<polygon fill="none" stroke="#000000" stroke-dasharray="1,5" points="4011,-70 4011,-206 4783,-206 4783,-70 4011,-70"/>
</g>
<g id="clust57" class="cluster">
<title>cluster_Step3Module_declarations</title>
<polygon fill="none" stroke="#000000" points="4179,-78 4179,-130 4775,-130 4775,-78 4179,-78"/>
</g>
<g id="clust61" class="cluster">
<title>cluster_Step3Module_imports</title>
<polygon fill="none" stroke="#000000" points="4019,-78 4019,-130 4171,-130 4171,-78 4019,-78"/>
</g>
<g id="clust71" class="cluster">
<title>cluster_UploadPackageModule</title>
<polygon fill="none" stroke="#000000" stroke-dasharray="1,5" points="1265,-70 1265,-138 3579,-138 3579,-70 1265,-70"/>
</g>
<g id="clust72" class="cluster">
<title>cluster_UploadPackageModule_declarations</title>
<polygon fill="none" stroke="#000000" points="2451,-78 2451,-130 3571,-130 3571,-78 2451,-78"/>
</g>
<g id="clust77" class="cluster">
<title>cluster_UploadPackageModule_imports</title>
<polygon fill="none" stroke="#000000" points="2235,-78 2235,-130 2443,-130 2443,-78 2235,-78"/>
</g>
<g id="clust78" class="cluster">
<title>cluster_UploadPackageModule_exports</title>
<polygon fill="none" stroke="#000000" points="1273,-78 1273,-130 2227,-130 2227,-78 1273,-78"/>
</g>
<g id="clust89" class="cluster">
<title>cluster_VpcManagerModule</title>
<polygon fill="none" stroke="#000000" stroke-dasharray="1,5" points="3587,-70 3587,-282 4003,-282 4003,-70 3587,-70"/>
</g>
<g id="clust90" class="cluster">
<title>cluster_VpcManagerModule_declarations</title>
<polygon fill="none" stroke="#000000" points="3797,-78 3797,-130 3995,-130 3995,-78 3797,-78"/>
</g>
<g id="clust93" class="cluster">
<title>cluster_VpcManagerModule_imports</title>
<polygon fill="none" stroke="#000000" points="3595,-78 3595,-130 3789,-130 3789,-78 3595,-78"/>
</g>
<g id="clust94" class="cluster">
<title>cluster_VpcManagerModule_exports</title>
<polygon fill="none" stroke="#000000" points="3595,-222 3595,-274 3797,-274 3797,-222 3595,-222"/>
</g>
<!-- AppComponent -->
<g id="node1" class="node">
<title>AppComponent</title>
<polygon fill="#ffffb3" stroke="#000000" points="386.9399,-122 281.0601,-122 281.0601,-86 386.9399,-86 386.9399,-122"/>
<text text-anchor="middle" x="334" y="-99.8" font-family="Times,serif" font-size="14.00" fill="#000000">AppComponent</text>
</g>
<!-- AppModule -->
<g id="node2" class="node">
<title>AppModule</title>
<polygon fill="#8dd3c7" stroke="#000000" points="234.6571,-198 231.6571,-202 210.6571,-202 207.6571,-198 151.3429,-198 151.3429,-162 234.6571,-162 234.6571,-198"/>
<text text-anchor="middle" x="193" y="-175.8" font-family="Times,serif" font-size="14.00" fill="#000000">AppModule</text>
</g>
<!-- AppComponent&#45;&gt;AppModule -->
<g id="edge1" class="edge">
<title>AppComponent&#45;&gt;AppModule</title>
<path fill="none" stroke="#000000" d="M334,-122.0263C334,-146.9773 334,-189 334,-189 334,-189 244.9229,-189 244.9229,-189"/>
<polygon fill="#000000" stroke="#000000" points="244.9229,-185.5001 234.9229,-189 244.9229,-192.5001 244.9229,-185.5001"/>
</g>
<!-- AppComponent  -->
<g id="node5" class="node">
<title>AppComponent </title>
<polygon fill="#80b1d3" stroke="#000000" points="247.439,-266 138.561,-266 138.561,-230 247.439,-230 247.439,-266"/>
<text text-anchor="middle" x="193" y="-243.8" font-family="Times,serif" font-size="14.00" fill="#000000">AppComponent </text>
</g>
<!-- AppModule&#45;&gt;AppComponent  -->
<g id="edge4" class="edge">
<title>AppModule&#45;&gt;AppComponent </title>
<path fill="none" stroke="#000000" stroke-dasharray="1,5" d="M193,-198.2228C193,-198.2228 193,-219.7269 193,-219.7269"/>
<polygon fill="#000000" stroke="#000000" points="189.5001,-219.7269 193,-229.7269 196.5001,-219.727 189.5001,-219.7269"/>
</g>
<!-- AppRoutingModule -->
<g id="node3" class="node">
<title>AppRoutingModule</title>
<polygon fill="#8dd3c7" stroke="#000000" points="257.2744,-122 254.2744,-126 233.2744,-126 230.2744,-122 128.7256,-122 128.7256,-86 257.2744,-86 257.2744,-122"/>
<text text-anchor="middle" x="193" y="-99.8" font-family="Times,serif" font-size="14.00" fill="#000000">AppRoutingModule</text>
</g>
<!-- AppRoutingModule&#45;&gt;AppModule -->
<g id="edge2" class="edge">
<title>AppRoutingModule&#45;&gt;AppModule</title>
<path fill="none" stroke="#000000" d="M193,-122.0109C193,-122.0109 193,-151.855 193,-151.855"/>
<polygon fill="#000000" stroke="#000000" points="189.5001,-151.8549 193,-161.855 196.5001,-151.855 189.5001,-151.8549"/>
</g>
<!-- CoreModule -->
<g id="node4" class="node">
<title>CoreModule</title>
<polygon fill="#8dd3c7" stroke="#000000" points="110.2619,-122 107.2619,-126 86.2619,-126 83.2619,-122 23.7381,-122 23.7381,-86 110.2619,-86 110.2619,-122"/>
<text text-anchor="middle" x="67" y="-99.8" font-family="Times,serif" font-size="14.00" fill="#000000">CoreModule</text>
</g>
<!-- CoreModule&#45;&gt;AppModule -->
<g id="edge3" class="edge">
<title>CoreModule&#45;&gt;AppModule</title>
<path fill="none" stroke="#000000" d="M67,-122.0109C67,-144.4852 67,-180 67,-180 67,-180 141.0438,-180 141.0438,-180"/>
<polygon fill="#000000" stroke="#000000" points="141.0439,-183.5001 151.0438,-180 141.0438,-176.5001 141.0439,-183.5001"/>
</g>
<!-- DistributionListPageComponent -->
<g id="node6" class="node">
<title>DistributionListPageComponent</title>
<polygon fill="#ffffb3" stroke="#000000" points="624.9874,-122 427.0126,-122 427.0126,-86 624.9874,-86 624.9874,-122"/>
<text text-anchor="middle" x="526" y="-99.8" font-family="Times,serif" font-size="14.00" fill="#000000">DistributionListPageComponent</text>
</g>
<!-- DistributionListModule -->
<g id="node9" class="node">
<title>DistributionListModule</title>
<polygon fill="#8dd3c7" stroke="#000000" points="957.493,-198 954.493,-202 933.493,-202 930.493,-198 808.507,-198 808.507,-162 957.493,-162 957.493,-198"/>
<text text-anchor="middle" x="883" y="-175.8" font-family="Times,serif" font-size="14.00" fill="#000000">DistributionListModule</text>
</g>
<!-- DistributionListPageComponent&#45;&gt;DistributionListModule -->
<g id="edge5" class="edge">
<title>DistributionListPageComponent&#45;&gt;DistributionListModule</title>
<path fill="none" stroke="#000000" d="M526,-122.0109C526,-144.4852 526,-180 526,-180 526,-180 798.1611,-180 798.1611,-180"/>
<polygon fill="#000000" stroke="#000000" points="798.1611,-183.5001 808.1611,-180 798.1611,-176.5001 798.1611,-183.5001"/>
</g>
<!-- EditFormComponent -->
<g id="node7" class="node">
<title>EditFormComponent</title>
<polygon fill="#ffffb3" stroke="#000000" points="950.5,-122 815.5,-122 815.5,-86 950.5,-86 950.5,-122"/>
<text text-anchor="middle" x="883" y="-99.8" font-family="Times,serif" font-size="14.00" fill="#000000">EditFormComponent</text>
</g>
<!-- EditFormComponent&#45;&gt;DistributionListModule -->
<g id="edge6" class="edge">
<title>EditFormComponent&#45;&gt;DistributionListModule</title>
<path fill="none" stroke="#000000" d="M883,-122.0109C883,-122.0109 883,-151.855 883,-151.855"/>
<polygon fill="#000000" stroke="#000000" points="879.5001,-151.8549 883,-161.855 886.5001,-151.855 879.5001,-151.8549"/>
</g>
<!-- TableViewerComponent -->
<g id="node8" class="node">
<title>TableViewerComponent</title>
<polygon fill="#ffffb3" stroke="#000000" points="797.3989,-122 642.6011,-122 642.6011,-86 797.3989,-86 797.3989,-122"/>
<text text-anchor="middle" x="720" y="-99.8" font-family="Times,serif" font-size="14.00" fill="#000000">TableViewerComponent</text>
</g>
<!-- TableViewerComponent&#45;&gt;DistributionListModule -->
<g id="edge7" class="edge">
<title>TableViewerComponent&#45;&gt;DistributionListModule</title>
<path fill="none" stroke="#000000" d="M789.7278,-122.308C789.7278,-142.1455 789.7278,-171 789.7278,-171 789.7278,-171 798.1553,-171 798.1553,-171"/>
<polygon fill="#000000" stroke="#000000" points="798.1554,-174.5001 808.1553,-171 798.1553,-167.5001 798.1554,-174.5001"/>
</g>
<!-- DistributionListPageComponent  -->
<g id="node12" class="node">
<title>DistributionListPageComponent </title>
<polygon fill="#fb8072" stroke="#000000" points="983.988,-266 782.012,-266 782.012,-230 983.988,-230 983.988,-266"/>
<text text-anchor="middle" x="883" y="-243.8" font-family="Times,serif" font-size="14.00" fill="#000000">DistributionListPageComponent </text>
</g>
<!-- DistributionListModule&#45;&gt;DistributionListPageComponent  -->
<g id="edge10" class="edge">
<title>DistributionListModule&#45;&gt;DistributionListPageComponent </title>
<path fill="none" stroke="#000000" stroke-dasharray="5,2" d="M883,-198.2228C883,-198.2228 883,-219.7269 883,-219.7269"/>
<polygon fill="#000000" stroke="#000000" points="879.5001,-219.7269 883,-229.7269 886.5001,-219.727 879.5001,-219.7269"/>
</g>
<!-- DistributionListRouting -->
<g id="node10" class="node">
<title>DistributionListRouting</title>
<polygon fill="#8dd3c7" stroke="#000000" points="1125.0616,-122 1122.0616,-126 1101.0616,-126 1098.0616,-122 974.9384,-122 974.9384,-86 1125.0616,-86 1125.0616,-122"/>
<text text-anchor="middle" x="1050" y="-99.8" font-family="Times,serif" font-size="14.00" fill="#000000">DistributionListRouting</text>
</g>
<!-- DistributionListRouting&#45;&gt;DistributionListModule -->
<g id="edge8" class="edge">
<title>DistributionListRouting&#45;&gt;DistributionListModule</title>
<path fill="none" stroke="#000000" d="M979.2316,-122.0109C979.2316,-144.4852 979.2316,-180 979.2316,-180 979.2316,-180 967.8747,-180 967.8747,-180"/>
<polygon fill="#000000" stroke="#000000" points="967.8747,-176.5001 957.8747,-180 967.8747,-183.5001 967.8747,-176.5001"/>
</g>
<!-- SharedModule -->
<g id="node11" class="node">
<title>SharedModule</title>
<polygon fill="#8dd3c7" stroke="#000000" points="1241.4231,-122 1238.4231,-126 1217.4231,-126 1214.4231,-122 1142.5769,-122 1142.5769,-86 1241.4231,-86 1241.4231,-122"/>
<text text-anchor="middle" x="1192" y="-99.8" font-family="Times,serif" font-size="14.00" fill="#000000">SharedModule</text>
</g>
<!-- SharedModule&#45;&gt;DistributionListModule -->
<g id="edge9" class="edge">
<title>SharedModule&#45;&gt;DistributionListModule</title>
<path fill="none" stroke="#000000" d="M1223.3162,-122.0263C1223.3162,-146.9773 1223.3162,-189 1223.3162,-189 1223.3162,-189 967.6838,-189 967.6838,-189"/>
<polygon fill="#000000" stroke="#000000" points="967.6839,-185.5001 957.6838,-189 967.6838,-192.5001 967.6839,-185.5001"/>
</g>
<!-- UploadPackageModule -->
<g id="node15" class="node">
<title>UploadPackageModule</title>
<polygon fill="#8dd3c7" stroke="#000000" points="2272.9032,-198 2269.9032,-202 2248.9032,-202 2245.9032,-198 2125.0968,-198 2125.0968,-162 2272.9032,-162 2272.9032,-198"/>
<text text-anchor="middle" x="2199" y="-175.8" font-family="Times,serif" font-size="14.00" fill="#000000">UploadPackageModule</text>
</g>
<!-- SharedModule&#45;&gt;UploadPackageModule -->
<g id="edge34" class="edge">
<title>SharedModule&#45;&gt;UploadPackageModule</title>
<path fill="none" stroke="#000000" d="M1196.4737,-122.4854C1196.4737,-134.1399 1196.4737,-147 1196.4737,-147 1196.4737,-147 2137.0049,-147 2137.0049,-147 2137.0049,-147 2137.0049,-151.9551 2137.0049,-151.9551"/>
<polygon fill="#000000" stroke="#000000" points="2133.505,-151.9551 2137.0049,-161.9551 2140.505,-151.9552 2133.505,-151.9551"/>
</g>
<!-- HeaderComponent  -->
<g id="node16" class="node">
<title>HeaderComponent </title>
<polygon fill="#fb8072" stroke="#000000" points="1598.7436,-198 1473.2564,-198 1473.2564,-162 1598.7436,-162 1598.7436,-198"/>
<text text-anchor="middle" x="1536" y="-175.8" font-family="Times,serif" font-size="14.00" fill="#000000">HeaderComponent </text>
</g>
<!-- SharedModule&#45;&gt;HeaderComponent  -->
<g id="edge14" class="edge">
<title>SharedModule&#45;&gt;HeaderComponent </title>
<path fill="none" stroke="#000000" stroke-dasharray="5,2" d="M1178.5788,-122.0091C1178.5788,-138.0494 1178.5788,-159 1178.5788,-159 1178.5788,-159 1536,-159 1536,-159 1536,-159 1536,-159.292 1536,-159.292"/>
<polygon fill="#000000" stroke="#000000" points="1532.5004,-151.9198 1536,-161.92 1539.5004,-151.9201 1532.5004,-151.9198"/>
</g>
<!-- SelectLanguageComponent  -->
<g id="node17" class="node">
<title>SelectLanguageComponent </title>
<polygon fill="#fb8072" stroke="#000000" points="1455.2366,-198 1280.7634,-198 1280.7634,-162 1455.2366,-162 1455.2366,-198"/>
<text text-anchor="middle" x="1368" y="-175.8" font-family="Times,serif" font-size="14.00" fill="#000000">SelectLanguageComponent </text>
</g>
<!-- SharedModule&#45;&gt;SelectLanguageComponent  -->
<g id="edge15" class="edge">
<title>SharedModule&#45;&gt;SelectLanguageComponent </title>
<path fill="none" stroke="#000000" stroke-dasharray="5,2" d="M1232.2636,-122.308C1232.2636,-142.1455 1232.2636,-171 1232.2636,-171 1232.2636,-171 1270.5014,-171 1270.5014,-171"/>
<polygon fill="#000000" stroke="#000000" points="1270.5014,-174.5001 1280.5014,-171 1270.5013,-167.5001 1270.5014,-174.5001"/>
</g>
<!-- UploadPackageModule  -->
<g id="node18" class="node">
<title>UploadPackageModule </title>
<polygon fill="#fb8072" stroke="#000000" points="1767.4026,-198 1616.5974,-198 1616.5974,-162 1767.4026,-162 1767.4026,-198"/>
<text text-anchor="middle" x="1692" y="-175.8" font-family="Times,serif" font-size="14.00" fill="#000000">UploadPackageModule </text>
</g>
<!-- SharedModule&#45;&gt;UploadPackageModule  -->
<g id="edge16" class="edge">
<title>SharedModule&#45;&gt;UploadPackageModule </title>
<path fill="none" stroke="#000000" stroke-dasharray="5,2" d="M1187.5263,-122.1871C1187.5263,-137.1824 1187.5263,-156 1187.5263,-156 1187.5263,-156 1623.1886,-156 1623.1886,-156 1623.1886,-156 1623.1886,-156.581 1623.1886,-156.581"/>
<polygon fill="#000000" stroke="#000000" points="1619.6888,-151.8097 1623.1886,-161.8097 1626.6888,-151.8098 1619.6888,-151.8097"/>
</g>
<!-- Step3Module -->
<g id="node25" class="node">
<title>Step3Module</title>
<polygon fill="#8dd3c7" stroke="#000000" points="4349.9387,-198 4346.9387,-202 4325.9387,-202 4322.9387,-198 4258.0613,-198 4258.0613,-162 4349.9387,-162 4349.9387,-198"/>
<text text-anchor="middle" x="4304" y="-175.8" font-family="Times,serif" font-size="14.00" fill="#000000">Step3Module</text>
</g>
<!-- SharedModule&#45;&gt;Step3Module -->
<g id="edge22" class="edge">
<title>SharedModule&#45;&gt;Step3Module</title>
<path fill="none" stroke="#000000" d="M1214.3687,-122.1679C1214.3687,-124.4478 1214.3687,-126 1214.3687,-126 1214.3687,-126 4288.7604,-126 4288.7604,-126 4288.7604,-126 4288.7604,-151.7181 4288.7604,-151.7181"/>
<polygon fill="#000000" stroke="#000000" points="4285.2605,-151.718 4288.7604,-161.7181 4292.2605,-151.7181 4285.2605,-151.718"/>
</g>
<!-- VpcManagerModule -->
<g id="node40" class="node">
<title>VpcManagerModule</title>
<polygon fill="#8dd3c7" stroke="#000000" points="3758.1205,-198 3755.1205,-202 3734.1205,-202 3731.1205,-198 3625.8795,-198 3625.8795,-162 3758.1205,-162 3758.1205,-198"/>
<text text-anchor="middle" x="3692" y="-175.8" font-family="Times,serif" font-size="14.00" fill="#000000">VpcManagerModule</text>
</g>
<!-- SharedModule&#45;&gt;VpcManagerModule -->
<g id="edge39" class="edge">
<title>SharedModule&#45;&gt;VpcManagerModule</title>
<path fill="none" stroke="#000000" d="M1205.4212,-122.1686C1205.4212,-126.0459 1205.4212,-129 1205.4212,-129 1205.4212,-129 3669.8967,-129 3669.8967,-129 3669.8967,-129 3669.8967,-151.8757 3669.8967,-151.8757"/>
<polygon fill="#000000" stroke="#000000" points="3666.3968,-151.8757 3669.8967,-161.8757 3673.3968,-151.8757 3666.3968,-151.8757"/>
</g>
<!-- HeaderComponent -->
<g id="node13" class="node">
<title>HeaderComponent</title>
<polygon fill="#ffffb3" stroke="#000000" points="2100.7437,-198 1979.2563,-198 1979.2563,-162 2100.7437,-162 2100.7437,-198"/>
<text text-anchor="middle" x="2040" y="-175.8" font-family="Times,serif" font-size="14.00" fill="#000000">HeaderComponent</text>
</g>
<!-- HeaderComponent&#45;&gt;SharedModule -->
<g id="edge11" class="edge">
<title>HeaderComponent&#45;&gt;SharedModule</title>
<path fill="none" stroke="#000000" d="M1986.5532,-161.8568C1986.5532,-155.5389 1986.5532,-150 1986.5532,-150 1986.5532,-150 1160.6838,-150 1160.6838,-150 1160.6838,-150 1160.6838,-132.1804 1160.6838,-132.1804"/>
<polygon fill="#000000" stroke="#000000" points="1164.1839,-132.1804 1160.6838,-122.1804 1157.1839,-132.1805 1164.1839,-132.1804"/>
</g>
<!-- SelectLanguageComponent -->
<g id="node14" class="node">
<title>SelectLanguageComponent</title>
<polygon fill="#ffffb3" stroke="#000000" points="1961.2366,-198 1790.7634,-198 1790.7634,-162 1961.2366,-162 1961.2366,-198"/>
<text text-anchor="middle" x="1876" y="-175.8" font-family="Times,serif" font-size="14.00" fill="#000000">SelectLanguageComponent</text>
</g>
<!-- SelectLanguageComponent&#45;&gt;SharedModule -->
<g id="edge12" class="edge">
<title>SelectLanguageComponent&#45;&gt;SharedModule</title>
<path fill="none" stroke="#000000" d="M1798.4784,-161.8408C1798.4784,-156.9567 1798.4784,-153 1798.4784,-153 1798.4784,-153 1151.7364,-153 1151.7364,-153 1151.7364,-153 1151.7364,-132.2458 1151.7364,-132.2458"/>
<polygon fill="#000000" stroke="#000000" points="1155.2365,-132.2458 1151.7364,-122.2458 1148.2365,-132.2458 1155.2365,-132.2458"/>
</g>
<!-- UploadPackageModule&#45;&gt;SharedModule -->
<g id="edge13" class="edge">
<title>UploadPackageModule&#45;&gt;SharedModule</title>
<path fill="none" stroke="#000000" d="M2148.7112,-161.5782C2148.7112,-152.7209 2148.7112,-144 2148.7112,-144 2148.7112,-144 1169.6313,-144 1169.6313,-144 1169.6313,-144 1169.6313,-132.1274 1169.6313,-132.1274"/>
<polygon fill="#000000" stroke="#000000" points="1173.1314,-132.1274 1169.6313,-122.1274 1166.1314,-132.1275 1173.1314,-132.1274"/>
</g>
<!-- DocumentItemComponent  -->
<g id="node31" class="node">
<title>DocumentItemComponent </title>
<polygon fill="#fb8072" stroke="#000000" points="2001.3059,-122 1832.6941,-122 1832.6941,-86 2001.3059,-86 2001.3059,-122"/>
<text text-anchor="middle" x="1917" y="-99.8" font-family="Times,serif" font-size="14.00" fill="#000000">DocumentItemComponent </text>
</g>
<!-- UploadPackageModule&#45;&gt;DocumentItemComponent  -->
<g id="edge28" class="edge">
<title>UploadPackageModule&#45;&gt;DocumentItemComponent </title>
<path fill="none" stroke="#000000" stroke-dasharray="5,2" d="M2195.536,-161.8533C2195.536,-148.2605 2195.536,-132 2195.536,-132 2195.536,-132 1993.978,-132 1993.978,-132 1993.978,-132 1993.978,-131.0207 1993.978,-131.0207"/>
<polygon fill="#000000" stroke="#000000" points="1997.4781,-132.2069 1993.978,-122.207 1990.4781,-132.207 1997.4781,-132.2069"/>
</g>
<!-- DocumentViewerComponent  -->
<g id="node32" class="node">
<title>DocumentViewerComponent </title>
<polygon fill="#fb8072" stroke="#000000" points="1814.3433,-122 1629.6567,-122 1629.6567,-86 1814.3433,-86 1814.3433,-122"/>
<text text-anchor="middle" x="1722" y="-99.8" font-family="Times,serif" font-size="14.00" fill="#000000">DocumentViewerComponent </text>
</g>
<!-- UploadPackageModule&#45;&gt;DocumentViewerComponent  -->
<g id="edge29" class="edge">
<title>UploadPackageModule&#45;&gt;DocumentViewerComponent </title>
<path fill="none" stroke="#000000" stroke-dasharray="5,2" d="M2183.8298,-161.9561C2183.8298,-149.4367 2183.8298,-135 2183.8298,-135 2183.8298,-135 1806.3249,-135 1806.3249,-135 1806.3249,-135 1806.3249,-132.0328 1806.3249,-132.0328"/>
<polygon fill="#000000" stroke="#000000" points="1809.825,-132.0328 1806.3249,-122.0328 1802.825,-132.0329 1809.825,-132.0328"/>
</g>
<!-- ModalDialogComponent  -->
<g id="node33" class="node">
<title>ModalDialogComponent </title>
<polygon fill="#fb8072" stroke="#000000" points="1611.9853,-122 1452.0147,-122 1452.0147,-86 1611.9853,-86 1611.9853,-122"/>
<text text-anchor="middle" x="1532" y="-99.8" font-family="Times,serif" font-size="14.00" fill="#000000">ModalDialogComponent </text>
</g>
<!-- UploadPackageModule&#45;&gt;ModalDialogComponent  -->
<g id="edge30" class="edge">
<title>UploadPackageModule&#45;&gt;ModalDialogComponent </title>
<path fill="none" stroke="#000000" stroke-dasharray="5,2" d="M2172.1236,-161.9445C2172.1236,-150.561 2172.1236,-138 2172.1236,-138 2172.1236,-138 1605.182,-138 1605.182,-138 1605.182,-138 1605.182,-132.1944 1605.182,-132.1944"/>
<polygon fill="#000000" stroke="#000000" points="1608.6821,-132.1944 1605.182,-122.1944 1601.6821,-132.1945 1608.6821,-132.1944"/>
</g>
<!-- UploadFilesComponent  -->
<g id="node34" class="node">
<title>UploadFilesComponent </title>
<polygon fill="#fb8072" stroke="#000000" points="1434.7674,-122 1281.2326,-122 1281.2326,-86 1434.7674,-86 1434.7674,-122"/>
<text text-anchor="middle" x="1358" y="-99.8" font-family="Times,serif" font-size="14.00" fill="#000000">UploadFilesComponent </text>
</g>
<!-- UploadPackageModule&#45;&gt;UploadFilesComponent  -->
<g id="edge31" class="edge">
<title>UploadPackageModule&#45;&gt;UploadFilesComponent </title>
<path fill="none" stroke="#000000" stroke-dasharray="5,2" d="M2160.4174,-161.8701C2160.4174,-151.6855 2160.4174,-141 2160.4174,-141 2160.4174,-141 1358,-141 1358,-141 1358,-141 1358,-132.0664 1358,-132.0664"/>
<polygon fill="#000000" stroke="#000000" points="1361.5001,-132.0664 1358,-122.0664 1354.5001,-132.0665 1361.5001,-132.0664"/>
</g>
<!-- UploadPackagePageComponent  -->
<g id="node38" class="node">
<title>UploadPackagePageComponent </title>
<polygon fill="#fb8072" stroke="#000000" points="2218.897,-122 2019.103,-122 2019.103,-86 2218.897,-86 2218.897,-122"/>
<text text-anchor="middle" x="2119" y="-99.8" font-family="Times,serif" font-size="14.00" fill="#000000">UploadPackagePageComponent </text>
</g>
<!-- UploadPackageModule&#45;&gt;UploadPackagePageComponent  -->
<g id="edge36" class="edge">
<title>UploadPackageModule&#45;&gt;UploadPackagePageComponent </title>
<path fill="none" stroke="#000000" stroke-dasharray="5,2" d="M2207.2423,-161.9891C2207.2423,-161.9891 2207.2423,-132.145 2207.2423,-132.145"/>
<polygon fill="#000000" stroke="#000000" points="2210.7424,-132.145 2207.2423,-122.145 2203.7424,-132.1451 2210.7424,-132.145"/>
</g>
<!-- Step0Component -->
<g id="node19" class="node">
<title>Step0Component</title>
<polygon fill="#ffffb3" stroke="#000000" points="5080.7204,-122 4967.2796,-122 4967.2796,-86 5080.7204,-86 5080.7204,-122"/>
<text text-anchor="middle" x="5024" y="-99.8" font-family="Times,serif" font-size="14.00" fill="#000000">Step0Component</text>
</g>
<!-- Step0Module -->
<g id="node20" class="node">
<title>Step0Module</title>
<polygon fill="#8dd3c7" stroke="#000000" points="4994.9387,-198 4991.9387,-202 4970.9387,-202 4967.9387,-198 4903.0613,-198 4903.0613,-162 4994.9387,-162 4994.9387,-198"/>
<text text-anchor="middle" x="4949" y="-175.8" font-family="Times,serif" font-size="14.00" fill="#000000">Step0Module</text>
</g>
<!-- Step0Component&#45;&gt;Step0Module -->
<g id="edge17" class="edge">
<title>Step0Component&#45;&gt;Step0Module</title>
<path fill="none" stroke="#000000" d="M4981.0544,-122.0109C4981.0544,-122.0109 4981.0544,-151.855 4981.0544,-151.855"/>
<polygon fill="#000000" stroke="#000000" points="4977.5544,-151.8549 4981.0544,-161.855 4984.5544,-151.855 4977.5544,-151.8549"/>
</g>
<!-- Step0RoutingModule -->
<g id="node21" class="node">
<title>Step0RoutingModule</title>
<polygon fill="#8dd3c7" stroke="#000000" points="4943.0561,-122 4940.0561,-126 4919.0561,-126 4916.0561,-122 4806.9439,-122 4806.9439,-86 4943.0561,-86 4943.0561,-122"/>
<text text-anchor="middle" x="4875" y="-99.8" font-family="Times,serif" font-size="14.00" fill="#000000">Step0RoutingModule</text>
</g>
<!-- Step0RoutingModule&#45;&gt;Step0Module -->
<g id="edge18" class="edge">
<title>Step0RoutingModule&#45;&gt;Step0Module</title>
<path fill="none" stroke="#000000" d="M4923.2795,-122.0109C4923.2795,-122.0109 4923.2795,-151.855 4923.2795,-151.855"/>
<polygon fill="#000000" stroke="#000000" points="4919.7795,-151.8549 4923.2795,-161.855 4926.7795,-151.855 4919.7795,-151.8549"/>
</g>
<!-- CirculationDistributedPageComponent -->
<g id="node22" class="node">
<title>CirculationDistributedPageComponent</title>
<polygon fill="#ffffb3" stroke="#000000" points="4421.0223,-122 4186.9777,-122 4186.9777,-86 4421.0223,-86 4421.0223,-122"/>
<text text-anchor="middle" x="4304" y="-99.8" font-family="Times,serif" font-size="14.00" fill="#000000">CirculationDistributedPageComponent</text>
</g>
<!-- CirculationDistributedPageComponent&#45;&gt;Step3Module -->
<g id="edge19" class="edge">
<title>CirculationDistributedPageComponent&#45;&gt;Step3Module</title>
<path fill="none" stroke="#000000" d="M4319.2396,-122.0109C4319.2396,-122.0109 4319.2396,-151.855 4319.2396,-151.855"/>
<polygon fill="#000000" stroke="#000000" points="4315.7397,-151.8549 4319.2396,-161.855 4322.7397,-151.855 4315.7397,-151.8549"/>
</g>
<!-- CirculationPageComponent -->
<g id="node23" class="node">
<title>CirculationPageComponent</title>
<polygon fill="#ffffb3" stroke="#000000" points="4766.5336,-122 4595.4664,-122 4595.4664,-86 4766.5336,-86 4766.5336,-122"/>
<text text-anchor="middle" x="4681" y="-99.8" font-family="Times,serif" font-size="14.00" fill="#000000">CirculationPageComponent</text>
</g>
<!-- CirculationPageComponent&#45;&gt;Step3Module -->
<g id="edge20" class="edge">
<title>CirculationPageComponent&#45;&gt;Step3Module</title>
<path fill="none" stroke="#000000" d="M4681,-122.1985C4681,-146.3563 4681,-186 4681,-186 4681,-186 4359.8507,-186 4359.8507,-186"/>
<polygon fill="#000000" stroke="#000000" points="4359.8507,-182.5001 4349.8507,-186 4359.8507,-189.5001 4359.8507,-182.5001"/>
</g>
<!-- MainPageComponent -->
<g id="node24" class="node">
<title>MainPageComponent</title>
<polygon fill="#ffffb3" stroke="#000000" points="4577.094,-122 4438.906,-122 4438.906,-86 4577.094,-86 4577.094,-122"/>
<text text-anchor="middle" x="4508" y="-99.8" font-family="Times,serif" font-size="14.00" fill="#000000">MainPageComponent</text>
</g>
<!-- MainPageComponent&#45;&gt;Step3Module -->
<g id="edge21" class="edge">
<title>MainPageComponent&#45;&gt;Step3Module</title>
<path fill="none" stroke="#000000" d="M4508,-122.0267C4508,-142.7672 4508,-174 4508,-174 4508,-174 4359.7816,-174 4359.7816,-174"/>
<polygon fill="#000000" stroke="#000000" points="4359.7816,-170.5001 4349.7816,-174 4359.7815,-177.5001 4359.7816,-170.5001"/>
</g>
<!-- Step3RoutingModule -->
<g id="node26" class="node">
<title>Step3RoutingModule</title>
<polygon fill="#8dd3c7" stroke="#000000" points="4163.0561,-122 4160.0561,-126 4139.0561,-126 4136.0561,-122 4026.9439,-122 4026.9439,-86 4163.0561,-86 4163.0561,-122"/>
<text text-anchor="middle" x="4095" y="-99.8" font-family="Times,serif" font-size="14.00" fill="#000000">Step3RoutingModule</text>
</g>
<!-- Step3RoutingModule&#45;&gt;Step3Module -->
<g id="edge23" class="edge">
<title>Step3RoutingModule&#45;&gt;Step3Module</title>
<path fill="none" stroke="#000000" d="M4095,-122.0267C4095,-142.7672 4095,-174 4095,-174 4095,-174 4248.1341,-174 4248.1341,-174"/>
<polygon fill="#000000" stroke="#000000" points="4248.1341,-177.5001 4258.1341,-174 4248.134,-170.5001 4248.1341,-177.5001"/>
</g>
<!-- DocumentItemComponent -->
<g id="node27" class="node">
<title>DocumentItemComponent</title>
<polygon fill="#ffffb3" stroke="#000000" points="2996.8061,-122 2831.1939,-122 2831.1939,-86 2996.8061,-86 2996.8061,-122"/>
<text text-anchor="middle" x="2914" y="-99.8" font-family="Times,serif" font-size="14.00" fill="#000000">DocumentItemComponent</text>
</g>
<!-- DocumentItemComponent&#45;&gt;UploadPackageModule -->
<g id="edge24" class="edge">
<title>DocumentItemComponent&#45;&gt;UploadPackageModule</title>
<path fill="none" stroke="#000000" d="M2914,-122.1686C2914,-143.498 2914,-176 2914,-176 2914,-176 2282.8245,-176 2282.8245,-176"/>
<polygon fill="#000000" stroke="#000000" points="2282.8246,-172.5001 2272.8245,-176 2282.8245,-179.5001 2282.8246,-172.5001"/>
</g>
<!-- DocumentViewerComponent -->
<g id="node28" class="node">
<title>DocumentViewerComponent</title>
<polygon fill="#ffffb3" stroke="#000000" points="2813.3431,-122 2632.6569,-122 2632.6569,-86 2813.3431,-86 2813.3431,-122"/>
<text text-anchor="middle" x="2723" y="-99.8" font-family="Times,serif" font-size="14.00" fill="#000000">DocumentViewerComponent</text>
</g>
<!-- DocumentViewerComponent&#45;&gt;UploadPackageModule -->
<g id="edge25" class="edge">
<title>DocumentViewerComponent&#45;&gt;UploadPackageModule</title>
<path fill="none" stroke="#000000" d="M2723,-122.308C2723,-142.1455 2723,-171 2723,-171 2723,-171 2282.965,-171 2282.965,-171"/>
<polygon fill="#000000" stroke="#000000" points="2282.9651,-167.5001 2272.965,-171 2282.965,-174.5001 2282.9651,-167.5001"/>
</g>
<!-- ModalDialogComponent -->
<g id="node29" class="node">
<title>ModalDialogComponent</title>
<polygon fill="#ffffb3" stroke="#000000" points="2614.9846,-122 2459.0154,-122 2459.0154,-86 2614.9846,-86 2614.9846,-122"/>
<text text-anchor="middle" x="2537" y="-99.8" font-family="Times,serif" font-size="14.00" fill="#000000">ModalDialogComponent</text>
</g>
<!-- ModalDialogComponent&#45;&gt;UploadPackageModule -->
<g id="edge26" class="edge">
<title>ModalDialogComponent&#45;&gt;UploadPackageModule</title>
<path fill="none" stroke="#000000" d="M2537,-122.2222C2537,-140.8285 2537,-167 2537,-167 2537,-167 2282.7579,-167 2282.7579,-167"/>
<polygon fill="#000000" stroke="#000000" points="2282.7579,-163.5001 2272.7579,-167 2282.7578,-170.5001 2282.7579,-163.5001"/>
</g>
<!-- UploadFilesComponent -->
<g id="node30" class="node">
<title>UploadFilesComponent</title>
<polygon fill="#ffffb3" stroke="#000000" points="3378.7674,-122 3229.2326,-122 3229.2326,-86 3378.7674,-86 3378.7674,-122"/>
<text text-anchor="middle" x="3304" y="-99.8" font-family="Times,serif" font-size="14.00" fill="#000000">UploadFilesComponent</text>
</g>
<!-- UploadFilesComponent&#45;&gt;UploadPackageModule -->
<g id="edge27" class="edge">
<title>UploadFilesComponent&#45;&gt;UploadPackageModule</title>
<path fill="none" stroke="#000000" d="M3304,-122.3802C3304,-146.2785 3304,-185 3304,-185 3304,-185 2282.7874,-185 2282.7874,-185"/>
<polygon fill="#000000" stroke="#000000" points="2282.7874,-181.5001 2272.7874,-185 2282.7874,-188.5001 2282.7874,-181.5001"/>
</g>
<!-- ModalConfirmComponent -->
<g id="node35" class="node">
<title>ModalConfirmComponent</title>
<polygon fill="#ffffb3" stroke="#000000" points="3562.8215,-122 3397.1785,-122 3397.1785,-86 3562.8215,-86 3562.8215,-122"/>
<text text-anchor="middle" x="3480" y="-99.8" font-family="Times,serif" font-size="14.00" fill="#000000">ModalConfirmComponent</text>
</g>
<!-- ModalConfirmComponent&#45;&gt;UploadPackageModule -->
<g id="edge32" class="edge">
<title>ModalConfirmComponent&#45;&gt;UploadPackageModule</title>
<path fill="none" stroke="#000000" d="M3452.4465,-122.0263C3452.4465,-146.9773 3452.4465,-189 3452.4465,-189 3452.4465,-189 2282.7292,-189 2282.7292,-189"/>
<polygon fill="#000000" stroke="#000000" points="2282.7292,-185.5001 2272.7292,-189 2282.7292,-192.5001 2282.7292,-185.5001"/>
</g>
<!-- ModalConfirmComponent&#45;&gt;VpcManagerModule -->
<g id="edge37" class="edge">
<title>ModalConfirmComponent&#45;&gt;VpcManagerModule</title>
<path fill="none" stroke="#000000" d="M3507.5535,-122.2128C3507.5535,-148.5111 3507.5535,-194 3507.5535,-194 3507.5535,-194 3615.6712,-194 3615.6712,-194"/>
<polygon fill="#000000" stroke="#000000" points="3615.6712,-197.5001 3625.6712,-194 3615.6711,-190.5001 3615.6712,-197.5001"/>
</g>
<!-- UploadPackagePageComponent -->
<g id="node36" class="node">
<title>UploadPackagePageComponent</title>
<polygon fill="#ffffb3" stroke="#000000" points="3211.3974,-122 3014.6026,-122 3014.6026,-86 3211.3974,-86 3211.3974,-122"/>
<text text-anchor="middle" x="3113" y="-99.8" font-family="Times,serif" font-size="14.00" fill="#000000">UploadPackagePageComponent</text>
</g>
<!-- UploadPackagePageComponent&#45;&gt;UploadPackageModule -->
<g id="edge33" class="edge">
<title>UploadPackagePageComponent&#45;&gt;UploadPackageModule</title>
<path fill="none" stroke="#000000" d="M3113,-122.0109C3113,-144.4852 3113,-180 3113,-180 3113,-180 2283.0222,-180 2283.0222,-180"/>
<polygon fill="#000000" stroke="#000000" points="2283.0223,-176.5001 2273.0222,-180 2283.0222,-183.5001 2283.0223,-176.5001"/>
</g>
<!-- UploadPackageRoutingModule -->
<g id="node37" class="node">
<title>UploadPackageRoutingModule</title>
<polygon fill="#8dd3c7" stroke="#000000" points="2435.021,-122 2432.021,-126 2411.021,-126 2408.021,-122 2242.979,-122 2242.979,-86 2435.021,-86 2435.021,-122"/>
<text text-anchor="middle" x="2339" y="-99.8" font-family="Times,serif" font-size="14.00" fill="#000000">UploadPackageRoutingModule</text>
</g>
<!-- UploadPackageRoutingModule&#45;&gt;UploadPackageModule -->
<g id="edge35" class="edge">
<title>UploadPackageRoutingModule&#45;&gt;UploadPackageModule</title>
<path fill="none" stroke="#000000" d="M2257.7206,-122.0109C2257.7206,-122.0109 2257.7206,-151.855 2257.7206,-151.855"/>
<polygon fill="#000000" stroke="#000000" points="2254.2206,-151.8549 2257.7206,-161.855 2261.2206,-151.855 2254.2206,-151.8549"/>
</g>
<!-- VpcManagerPageComponent -->
<g id="node39" class="node">
<title>VpcManagerPageComponent</title>
<polygon fill="#ffffb3" stroke="#000000" points="3986.6148,-122 3805.3852,-122 3805.3852,-86 3986.6148,-86 3986.6148,-122"/>
<text text-anchor="middle" x="3896" y="-99.8" font-family="Times,serif" font-size="14.00" fill="#000000">VpcManagerPageComponent</text>
</g>
<!-- VpcManagerPageComponent&#45;&gt;VpcManagerModule -->
<g id="edge38" class="edge">
<title>VpcManagerPageComponent&#45;&gt;VpcManagerModule</title>
<path fill="none" stroke="#000000" d="M3896,-122.1985C3896,-146.3563 3896,-186 3896,-186 3896,-186 3768.233,-186 3768.233,-186"/>
<polygon fill="#000000" stroke="#000000" points="3768.233,-182.5001 3758.233,-186 3768.2329,-189.5001 3768.233,-182.5001"/>
</g>
<!-- VpcManagerPageComponent  -->
<g id="node42" class="node">
<title>VpcManagerPageComponent </title>
<polygon fill="#fb8072" stroke="#000000" points="3788.6144,-266 3603.3856,-266 3603.3856,-230 3788.6144,-230 3788.6144,-266"/>
<text text-anchor="middle" x="3696" y="-243.8" font-family="Times,serif" font-size="14.00" fill="#000000">VpcManagerPageComponent </text>
</g>
<!-- VpcManagerModule&#45;&gt;VpcManagerPageComponent  -->
<g id="edge41" class="edge">
<title>VpcManagerModule&#45;&gt;VpcManagerPageComponent </title>
<path fill="none" stroke="#000000" stroke-dasharray="5,2" d="M3692,-198.2228C3692,-198.2228 3692,-219.7269 3692,-219.7269"/>
<polygon fill="#000000" stroke="#000000" points="3688.5001,-219.7269 3692,-229.7269 3695.5001,-219.727 3688.5001,-219.7269"/>
</g>
<!-- VpcManagerRoutingModule -->
<g id="node41" class="node">
<title>VpcManagerRoutingModule</title>
<polygon fill="#8dd3c7" stroke="#000000" points="3780.738,-122 3777.738,-126 3756.738,-126 3753.738,-122 3603.262,-122 3603.262,-86 3780.738,-86 3780.738,-122"/>
<text text-anchor="middle" x="3692" y="-99.8" font-family="Times,serif" font-size="14.00" fill="#000000">VpcManagerRoutingModule</text>
</g>
<!-- VpcManagerRoutingModule&#45;&gt;VpcManagerModule -->
<g id="edge40" class="edge">
<title>VpcManagerRoutingModule&#45;&gt;VpcManagerModule</title>
<path fill="none" stroke="#000000" d="M3714.1033,-122.0109C3714.1033,-122.0109 3714.1033,-151.855 3714.1033,-151.855"/>
<polygon fill="#000000" stroke="#000000" points="3710.6034,-151.8549 3714.1033,-161.855 3717.6034,-151.855 3710.6034,-151.8549"/>
</g>
</g>
</svg>
