<?xml version="1.0" encoding="UTF-8" standalone="no"?>
<!DOCTYPE svg PUBLIC "-//W3C//DTD SVG 1.1//EN"
 "http://www.w3.org/Graphics/SVG/1.1/DTD/svg11.dtd">
<!-- Generated by graphviz version 2.40.1 (20161225.0304)
 -->
<!-- Title: dependencies Pages: 1 -->
<svg width="1052pt" height="284pt"
 viewBox="0.00 0.00 1052.00 284.00" xmlns="http://www.w3.org/2000/svg" xmlns:xlink="http://www.w3.org/1999/xlink">
<g id="graph0" class="graph" transform="scale(1 1) rotate(0) translate(4 280)">
<title>dependencies</title>
<polygon fill="#ffffff" stroke="transparent" points="-4,4 -4,-280 1048,-280 1048,4 -4,4"/>
<text text-anchor="start" x="501.0091" y="-42.4" font-family="sans-serif" font-weight="bold" font-size="14.00" fill="#000000">Legend</text>
<polygon fill="#ffffb3" stroke="transparent" points="288,-10 288,-30 308,-30 308,-10 288,-10"/>
<text text-anchor="start" x="311.629" y="-15.4" font-family="sans-serif" font-size="14.00" fill="#000000"> &#160;Declarations</text>
<polygon fill="#8dd3c7" stroke="transparent" points="401,-10 401,-30 421,-30 421,-10 401,-10"/>
<text text-anchor="start" x="424.7251" y="-15.4" font-family="sans-serif" font-size="14.00" fill="#000000"> &#160;Module</text>
<polygon fill="#80b1d3" stroke="transparent" points="487,-10 487,-30 507,-30 507,-10 487,-10"/>
<text text-anchor="start" x="510.7812" y="-15.4" font-family="sans-serif" font-size="14.00" fill="#000000"> &#160;Bootstrap</text>
<polygon fill="#fdb462" stroke="transparent" points="584,-10 584,-30 604,-30 604,-10 584,-10"/>
<text text-anchor="start" x="607.6732" y="-15.4" font-family="sans-serif" font-size="14.00" fill="#000000"> &#160;Providers</text>
<polygon fill="#fb8072" stroke="transparent" points="680,-10 680,-30 700,-30 700,-10 680,-10"/>
<text text-anchor="start" x="703.7258" y="-15.4" font-family="sans-serif" font-size="14.00" fill="#000000"> &#160;Exports</text>
<g id="clust1" class="cluster">
<title>cluster_DistributionListModule</title>
<polygon fill="none" stroke="#000000" stroke-dasharray="1,5" points="8,-70 8,-268 1036,-268 1036,-70 8,-70"/>
</g>
<g id="clust2" class="cluster">
<title>cluster_DistributionListModule_declarations</title>
<polygon fill="none" stroke="#000000" points="306,-78 306,-130 1028,-130 1028,-78 306,-78"/>
</g>
<g id="clust7" class="cluster">
<title>cluster_DistributionListModule_imports</title>
<polygon fill="none" stroke="#000000" points="16,-78 16,-130 298,-130 298,-78 16,-78"/>
</g>
<g id="clust8" class="cluster">
<title>cluster_DistributionListModule_exports</title>
<polygon fill="none" stroke="#000000" points="371,-208 371,-260 589,-260 589,-208 371,-208"/>
</g>
<!-- DistributionListPageComponent -->
<g id="node1" class="node">
<title>DistributionListPageComponent</title>
<polygon fill="#ffffb3" stroke="#000000" points="1019.9874,-122 822.0126,-122 822.0126,-86 1019.9874,-86 1019.9874,-122"/>
<text text-anchor="middle" x="921" y="-99.8" font-family="Times,serif" font-size="14.00" fill="#000000">DistributionListPageComponent</text>
</g>
<!-- DistributionListModule -->
<g id="node5" class="node">
<title>DistributionListModule</title>
<polygon fill="#8dd3c7" stroke="#000000" points="554.493,-187 551.493,-191 530.493,-191 527.493,-187 405.507,-187 405.507,-151 554.493,-151 554.493,-187"/>
<text text-anchor="middle" x="480" y="-164.8" font-family="Times,serif" font-size="14.00" fill="#000000">DistributionListModule</text>
</g>
<!-- DistributionListPageComponent&#45;&gt;DistributionListModule -->
<g id="edge1" class="edge">
<title>DistributionListPageComponent&#45;&gt;DistributionListModule</title>
<path fill="none" stroke="#000000" d="M921,-122.2843C921,-143.3211 921,-175 921,-175 921,-175 564.8096,-175 564.8096,-175"/>
<polygon fill="#000000" stroke="#000000" points="564.8097,-171.5001 554.8096,-175 564.8096,-178.5001 564.8097,-171.5001"/>
</g>
<!-- EditFormComponent -->
<g id="node2" class="node">
<title>EditFormComponent</title>
<polygon fill="#ffffb3" stroke="#000000" points="804.5,-122 669.5,-122 669.5,-86 804.5,-86 804.5,-122"/>
<text text-anchor="middle" x="737" y="-99.8" font-family="Times,serif" font-size="14.00" fill="#000000">EditFormComponent</text>
</g>
<!-- EditFormComponent&#45;&gt;DistributionListModule -->
<g id="edge2" class="edge">
<title>EditFormComponent&#45;&gt;DistributionListModule</title>
<path fill="none" stroke="#000000" d="M737,-122.0225C737,-139.3734 737,-163 737,-163 737,-163 564.6803,-163 564.6803,-163"/>
<polygon fill="#000000" stroke="#000000" points="564.6803,-159.5001 554.6803,-163 564.6802,-166.5001 564.6803,-159.5001"/>
</g>
<!-- ModalConfirmComponent -->
<g id="node3" class="node">
<title>ModalConfirmComponent</title>
<polygon fill="#ffffb3" stroke="#000000" points="651.8215,-122 486.1785,-122 486.1785,-86 651.8215,-86 651.8215,-122"/>
<text text-anchor="middle" x="569" y="-99.8" font-family="Times,serif" font-size="14.00" fill="#000000">ModalConfirmComponent</text>
</g>
<!-- ModalConfirmComponent&#45;&gt;DistributionListModule -->
<g id="edge3" class="edge">
<title>ModalConfirmComponent&#45;&gt;DistributionListModule</title>
<path fill="none" stroke="#000000" d="M520.418,-122.1061C520.418,-122.1061 520.418,-140.991 520.418,-140.991"/>
<polygon fill="#000000" stroke="#000000" points="516.918,-140.9909 520.418,-150.991 523.918,-140.991 516.918,-140.9909"/>
</g>
<!-- TableViewerComponent -->
<g id="node4" class="node">
<title>TableViewerComponent</title>
<polygon fill="#ffffb3" stroke="#000000" points="468.3989,-122 313.6011,-122 313.6011,-86 468.3989,-86 468.3989,-122"/>
<text text-anchor="middle" x="391" y="-99.8" font-family="Times,serif" font-size="14.00" fill="#000000">TableViewerComponent</text>
</g>
<!-- TableViewerComponent&#45;&gt;DistributionListModule -->
<g id="edge4" class="edge">
<title>TableViewerComponent&#45;&gt;DistributionListModule</title>
<path fill="none" stroke="#000000" d="M436.8514,-122.1061C436.8514,-122.1061 436.8514,-140.991 436.8514,-140.991"/>
<polygon fill="#000000" stroke="#000000" points="433.3514,-140.9909 436.8514,-150.991 440.3514,-140.991 433.3514,-140.9909"/>
</g>
<!-- DistributionListPageComponent  -->
<g id="node8" class="node">
<title>DistributionListPageComponent </title>
<polygon fill="#fb8072" stroke="#000000" points="580.988,-252 379.012,-252 379.012,-216 580.988,-216 580.988,-252"/>
<text text-anchor="middle" x="480" y="-229.8" font-family="Times,serif" font-size="14.00" fill="#000000">DistributionListPageComponent </text>
</g>
<!-- DistributionListModule&#45;&gt;DistributionListPageComponent  -->
<g id="edge7" class="edge">
<title>DistributionListModule&#45;&gt;DistributionListPageComponent </title>
<path fill="none" stroke="#000000" stroke-dasharray="5,2" d="M480,-187.1061C480,-187.1061 480,-205.991 480,-205.991"/>
<polygon fill="#000000" stroke="#000000" points="476.5001,-205.9909 480,-215.991 483.5001,-205.991 476.5001,-205.9909"/>
</g>
<!-- DistributionListRouting -->
<g id="node6" class="node">
<title>DistributionListRouting</title>
<polygon fill="#8dd3c7" stroke="#000000" points="290.0616,-122 287.0616,-126 266.0616,-126 263.0616,-122 139.9384,-122 139.9384,-86 290.0616,-86 290.0616,-122"/>
<text text-anchor="middle" x="215" y="-99.8" font-family="Times,serif" font-size="14.00" fill="#000000">DistributionListRouting</text>
</g>
<!-- DistributionListRouting&#45;&gt;DistributionListModule -->
<g id="edge5" class="edge">
<title>DistributionListRouting&#45;&gt;DistributionListModule</title>
<path fill="none" stroke="#000000" d="M215,-122.0225C215,-139.3734 215,-163 215,-163 215,-163 395.4775,-163 395.4775,-163"/>
<polygon fill="#000000" stroke="#000000" points="395.4775,-166.5001 405.4775,-163 395.4775,-159.5001 395.4775,-166.5001"/>
</g>
<!-- SharedModule -->
<g id="node7" class="node">
<title>SharedModule</title>
<polygon fill="#8dd3c7" stroke="#000000" points="122.4231,-122 119.4231,-126 98.4231,-126 95.4231,-122 23.5769,-122 23.5769,-86 122.4231,-86 122.4231,-122"/>
<text text-anchor="middle" x="73" y="-99.8" font-family="Times,serif" font-size="14.00" fill="#000000">SharedModule</text>
</g>
<!-- SharedModule&#45;&gt;DistributionListModule -->
<g id="edge6" class="edge">
<title>SharedModule&#45;&gt;DistributionListModule</title>
<path fill="none" stroke="#000000" d="M73,-122.2843C73,-143.3211 73,-175 73,-175 73,-175 395.3499,-175 395.3499,-175"/>
<polygon fill="#000000" stroke="#000000" points="395.35,-178.5001 405.3499,-175 395.3499,-171.5001 395.35,-178.5001"/>
</g>
</g>
</svg>
