<?xml version="1.0" encoding="UTF-8" standalone="no"?>
<!DOCTYPE svg PUBLIC "-//W3C//DTD SVG 1.1//EN"
 "http://www.w3.org/Graphics/SVG/1.1/DTD/svg11.dtd">
<!-- Generated by graphviz version 2.40.1 (20161225.0304)
 -->
<!-- Title: dependencies Pages: 1 -->
<svg width="776pt" height="284pt"
 viewBox="0.00 0.00 776.00 284.00" xmlns="http://www.w3.org/2000/svg" xmlns:xlink="http://www.w3.org/1999/xlink">
<g id="graph0" class="graph" transform="scale(1 1) rotate(0) translate(4 280)">
<title>dependencies</title>
<polygon fill="#ffffff" stroke="transparent" points="-4,4 -4,-280 772,-280 772,4 -4,4"/>
<text text-anchor="start" x="363.0091" y="-42.4" font-family="sans-serif" font-weight="bold" font-size="14.00" fill="#000000">Legend</text>
<polygon fill="#ffffb3" stroke="transparent" points="150,-10 150,-30 170,-30 170,-10 150,-10"/>
<text text-anchor="start" x="173.629" y="-15.4" font-family="sans-serif" font-size="14.00" fill="#000000"> &#160;Declarations</text>
<polygon fill="#8dd3c7" stroke="transparent" points="263,-10 263,-30 283,-30 283,-10 263,-10"/>
<text text-anchor="start" x="286.7251" y="-15.4" font-family="sans-serif" font-size="14.00" fill="#000000"> &#160;Module</text>
<polygon fill="#80b1d3" stroke="transparent" points="349,-10 349,-30 369,-30 369,-10 349,-10"/>
<text text-anchor="start" x="372.7812" y="-15.4" font-family="sans-serif" font-size="14.00" fill="#000000"> &#160;Bootstrap</text>
<polygon fill="#fdb462" stroke="transparent" points="446,-10 446,-30 466,-30 466,-10 446,-10"/>
<text text-anchor="start" x="469.6732" y="-15.4" font-family="sans-serif" font-size="14.00" fill="#000000"> &#160;Providers</text>
<polygon fill="#fb8072" stroke="transparent" points="542,-10 542,-30 562,-30 562,-10 542,-10"/>
<text text-anchor="start" x="565.7258" y="-15.4" font-family="sans-serif" font-size="14.00" fill="#000000"> &#160;Exports</text>
<g id="clust1" class="cluster">
<title>cluster_UploadPackageModule</title>
<polygon fill="none" stroke="#000000" stroke-dasharray="1,5" points="8,-70 8,-268 760,-268 760,-70 8,-70"/>
</g>
<g id="clust2" class="cluster">
<title>cluster_UploadPackageModule_declarations</title>
<polygon fill="none" stroke="#000000" points="24,-78 24,-130 746,-130 746,-78 24,-78"/>
</g>
<g id="clust8" class="cluster">
<title>cluster_UploadPackageModule_exports</title>
<polygon fill="none" stroke="#000000" points="16,-208 16,-260 752,-260 752,-208 16,-208"/>
</g>
<!-- DocumentItemComponent -->
<g id="node1" class="node">
<title>DocumentItemComponent</title>
<polygon fill="#ffffb3" stroke="#000000" points="737.8061,-122 572.1939,-122 572.1939,-86 737.8061,-86 737.8061,-122"/>
<text text-anchor="middle" x="655" y="-99.8" font-family="Times,serif" font-size="14.00" fill="#000000">DocumentItemComponent</text>
</g>
<!-- UploadPackageModule -->
<g id="node5" class="node">
<title>UploadPackageModule</title>
<polygon fill="#8dd3c7" stroke="#000000" points="353.9032,-187 350.9032,-191 329.9032,-191 326.9032,-187 206.0968,-187 206.0968,-151 353.9032,-151 353.9032,-187"/>
<text text-anchor="middle" x="280" y="-164.8" font-family="Times,serif" font-size="14.00" fill="#000000">UploadPackageModule</text>
</g>
<!-- DocumentItemComponent&#45;&gt;UploadPackageModule -->
<g id="edge1" class="edge">
<title>DocumentItemComponent&#45;&gt;UploadPackageModule</title>
<path fill="none" stroke="#000000" d="M683.6343,-122.2667C683.6343,-140.5552 683.6343,-166 683.6343,-166 683.6343,-166 364.0328,-166 364.0328,-166"/>
<polygon fill="#000000" stroke="#000000" points="364.0328,-162.5001 354.0328,-166 364.0327,-169.5001 364.0328,-162.5001"/>
</g>
<!-- DocumentViewerComponent -->
<g id="node2" class="node">
<title>DocumentViewerComponent</title>
<polygon fill="#ffffb3" stroke="#000000" points="554.3431,-122 373.6569,-122 373.6569,-86 554.3431,-86 554.3431,-122"/>
<text text-anchor="middle" x="464" y="-99.8" font-family="Times,serif" font-size="14.00" fill="#000000">DocumentViewerComponent</text>
</g>
<!-- DocumentViewerComponent&#45;&gt;UploadPackageModule -->
<g id="edge2" class="edge">
<title>DocumentViewerComponent&#45;&gt;UploadPackageModule</title>
<path fill="none" stroke="#000000" d="M494.1405,-122.0091C494.1405,-138.0494 494.1405,-159 494.1405,-159 494.1405,-159 363.9949,-159 363.9949,-159"/>
<polygon fill="#000000" stroke="#000000" points="363.9949,-155.5001 353.9949,-159 363.9948,-162.5001 363.9949,-155.5001"/>
</g>
<!-- ModalDialogComponent -->
<g id="node3" class="node">
<title>ModalDialogComponent</title>
<polygon fill="#ffffb3" stroke="#000000" points="355.9846,-122 200.0154,-122 200.0154,-86 355.9846,-86 355.9846,-122"/>
<text text-anchor="middle" x="278" y="-99.8" font-family="Times,serif" font-size="14.00" fill="#000000">ModalDialogComponent</text>
</g>
<!-- ModalDialogComponent&#45;&gt;UploadPackageModule -->
<g id="edge3" class="edge">
<title>ModalDialogComponent&#45;&gt;UploadPackageModule</title>
<path fill="none" stroke="#000000" d="M280,-122.1061C280,-122.1061 280,-140.991 280,-140.991"/>
<polygon fill="#000000" stroke="#000000" points="276.5001,-140.9909 280,-150.991 283.5001,-140.991 276.5001,-140.9909"/>
</g>
<!-- UploadFilesComponent -->
<g id="node4" class="node">
<title>UploadFilesComponent</title>
<polygon fill="#ffffb3" stroke="#000000" points="181.7674,-122 32.2326,-122 32.2326,-86 181.7674,-86 181.7674,-122"/>
<text text-anchor="middle" x="107" y="-99.8" font-family="Times,serif" font-size="14.00" fill="#000000">UploadFilesComponent</text>
</g>
<!-- UploadFilesComponent&#45;&gt;UploadPackageModule -->
<g id="edge4" class="edge">
<title>UploadFilesComponent&#45;&gt;UploadPackageModule</title>
<path fill="none" stroke="#000000" d="M129.1279,-122.0225C129.1279,-139.3734 129.1279,-163 129.1279,-163 129.1279,-163 195.8899,-163 195.8899,-163"/>
<polygon fill="#000000" stroke="#000000" points="195.8899,-166.5001 205.8899,-163 195.8899,-159.5001 195.8899,-166.5001"/>
</g>
<!-- DocumentItemComponent  -->
<g id="node6" class="node">
<title>DocumentItemComponent </title>
<polygon fill="#fb8072" stroke="#000000" points="744.3059,-252 575.6941,-252 575.6941,-216 744.3059,-216 744.3059,-252"/>
<text text-anchor="middle" x="660" y="-229.8" font-family="Times,serif" font-size="14.00" fill="#000000">DocumentItemComponent </text>
</g>
<!-- UploadPackageModule&#45;&gt;DocumentItemComponent  -->
<g id="edge5" class="edge">
<title>UploadPackageModule&#45;&gt;DocumentItemComponent </title>
<path fill="none" stroke="#000000" stroke-dasharray="5,2" d="M353.7173,-173C456.2906,-173 629.6157,-173 629.6157,-173 629.6157,-173 629.6157,-205.698 629.6157,-205.698"/>
<polygon fill="#000000" stroke="#000000" points="626.1158,-205.698 629.6157,-215.698 633.1158,-205.698 626.1158,-205.698"/>
</g>
<!-- DocumentViewerComponent  -->
<g id="node7" class="node">
<title>DocumentViewerComponent </title>
<polygon fill="#fb8072" stroke="#000000" points="557.3433,-252 372.6567,-252 372.6567,-216 557.3433,-216 557.3433,-252"/>
<text text-anchor="middle" x="465" y="-229.8" font-family="Times,serif" font-size="14.00" fill="#000000">DocumentViewerComponent </text>
</g>
<!-- UploadPackageModule&#45;&gt;DocumentViewerComponent  -->
<g id="edge6" class="edge">
<title>UploadPackageModule&#45;&gt;DocumentViewerComponent </title>
<path fill="none" stroke="#000000" stroke-dasharray="5,2" d="M353.7752,-180C393.2623,-180 433.8595,-180 433.8595,-180 433.8595,-180 433.8595,-205.7181 433.8595,-205.7181"/>
<polygon fill="#000000" stroke="#000000" points="430.3596,-205.718 433.8595,-215.7181 437.3596,-205.7181 430.3596,-205.718"/>
</g>
<!-- ModalDialogComponent  -->
<g id="node8" class="node">
<title>ModalDialogComponent </title>
<polygon fill="#fb8072" stroke="#000000" points="354.9853,-252 195.0147,-252 195.0147,-216 354.9853,-216 354.9853,-252"/>
<text text-anchor="middle" x="275" y="-229.8" font-family="Times,serif" font-size="14.00" fill="#000000">ModalDialogComponent </text>
</g>
<!-- UploadPackageModule&#45;&gt;ModalDialogComponent  -->
<g id="edge7" class="edge">
<title>UploadPackageModule&#45;&gt;ModalDialogComponent </title>
<path fill="none" stroke="#000000" stroke-dasharray="5,2" d="M280,-187.1061C280,-187.1061 280,-205.991 280,-205.991"/>
<polygon fill="#000000" stroke="#000000" points="276.5001,-205.9909 280,-215.991 283.5001,-205.991 276.5001,-205.9909"/>
</g>
<!-- UploadFilesComponent  -->
<g id="node9" class="node">
<title>UploadFilesComponent </title>
<polygon fill="#fb8072" stroke="#000000" points="177.7674,-252 24.2326,-252 24.2326,-216 177.7674,-216 177.7674,-252"/>
<text text-anchor="middle" x="101" y="-229.8" font-family="Times,serif" font-size="14.00" fill="#000000">UploadFilesComponent </text>
</g>
<!-- UploadPackageModule&#45;&gt;UploadFilesComponent  -->
<g id="edge8" class="edge">
<title>UploadPackageModule&#45;&gt;UploadFilesComponent </title>
<path fill="none" stroke="#000000" stroke-dasharray="5,2" d="M206.0424,-175C149.3015,-175 80.6221,-175 80.6221,-175 80.6221,-175 80.6221,-205.9775 80.6221,-205.9775"/>
<polygon fill="#000000" stroke="#000000" points="77.1222,-205.9774 80.6221,-215.9775 84.1222,-205.9775 77.1222,-205.9774"/>
</g>
</g>
</svg>
